<svg xmlns="http://www.w3.org/2000/svg" xmlns:xlink="http://www.w3.org/1999/xlink" version="1.1" id="Layer_1" x="0px" y="0px" viewBox="0 0 591.1 139.6" style="enable-background:new 0 0 591.1 139.6;" xml:space="preserve">
<style type="text/css">
	.st0{fill:white;}
</style>
<g>
	<g>
		<g>
			<path class="st0" d="M22.1,60.4C24.2,36,44.8,16.8,69.8,16.9c26.3,0.2,47.3,22.1,47.3,48.4l0,14.3c0,0.7,0.6,1.3,1.3,1.3l18,0     l0-77.3L3.8,3.5l0,58.1l17.1,0C21.5,61.6,22.1,61.1,22.1,60.4z"/>
			<path class="st0" d="M70,24.8C49.3,24.6,32.2,40.2,30,60.2c-0.1,0.7,0.5,1.4,1.3,1.4l29.1,0c0.8,0,1.6,0.4,2.1,1.1l10.7,17     c0.4,0.7,1.2,1.1,2.1,1.1l32.8,0c0.7,0,1.3-0.6,1.3-1.3l0-14.3C109.3,43.4,91.9,25,70,24.8z"/>
			<path class="st0" d="M56,69.4l-52.2,0l0,66.6l95.7,0L58.1,70.6C57.7,69.9,56.9,69.4,56,69.4z"/>
			<path class="st0" d="M80,90.6l28.7,45.5l27.6,0l0-47.4l-55.3,0C80.1,88.7,79.5,89.8,80,90.6z"/>
		</g>
		<g>
			<path class="st0" d="M208.6,66c7.4,0.9,13.9,5.9,13.9,14.5c0,11.3-8.2,18.1-22.1,18.1l-22.4,0l0-63.3l20.2,0     c14.2,0,21,6.7,21,17.4c0,7.2-5.5,12.2-10.6,13.1V66z M187.9,44.5l0,17.2l9.9,0c7.7,0,11.3-2.7,11.3-8.5c0-5.8-3.8-8.6-11.3-8.6     L187.9,44.5z M199.7,89.5c8.2,0,12.8-3,12.8-9.4c0-6.6-4.7-9.4-14.3-9.4l-10.3,0l0,18.8L199.7,89.5z"/>
			<path class="st0" d="M229.8,41.1c0-3.5,2.8-6.2,6.3-6.2c3.4,0,6.2,2.7,6.2,6.2c0,3.4-2.8,6.1-6.2,6.1     C232.5,47.3,229.8,44.6,229.8,41.1z M231.1,98.6l0-43.6l9.8,0l0,43.6L231.1,98.6z"/>
			<path class="st0" d="M249.1,76.9c0-12.8,9.7-22.8,22.8-22.8c13.2,0,22.8,9.9,22.8,22.8c0,12.8-9.7,22.7-22.8,22.7     C258.7,99.6,249.1,89.7,249.1,76.9z M284.9,76.9c0-8.2-5.6-14-13.1-14c-7.5,0-13,5.9-13,14c0,8.1,5.5,13.9,13,13.9     C279.4,90.8,284.9,85,284.9,76.9z"/>
			<path class="st0" d="M301.1,79.1l10.3,0c0.8,7.2,5.7,11.4,13.3,11.4c6.9,0,11.4-3.4,11.4-8.5c0-13.9-34-7.7-34-29.7     c0-10.3,8.6-17.8,21.2-17.8c14.4,0,21.5,10.3,21.9,20.1l-10.2,0c-0.5-6.3-4.9-11.1-11.7-11.1c-6.9,0-11.1,3.8-11.1,8.8     c0,13.5,34,6.8,34,29.7c0,10.4-9.4,17.6-21.5,17.6C308.8,99.6,301.4,88.7,301.1,79.1z"/>
			<path class="st0" d="M400.5,76.9c0,14.6-10,22.7-20.6,22.7c-6.1,0-11.4-2.6-14.4-7.2l0,24.6l-9.8,0l0-61.9l8.6,0l0.8,6.9     c3-5,8.4-7.8,14.7-7.8C390.4,54.1,400.5,62.2,400.5,76.9z M390.7,76.9c0-8.7-5.8-13.9-12.7-13.9c-6.5,0-12.7,5.1-12.7,13.9     c0,8.9,6.1,13.9,12.7,13.9C385,90.8,390.7,85.7,390.7,76.9z"/>
			<path class="st0" d="M449.6,72.8v25.8l-9.8,0V74.6c0-8.3-4.6-11.6-9.5-11.6c-5.3,0-10.7,4.8-10.7,12.4v23.3l-9.8,0l0-63.3l9.8,0     v26c3.2-5,8.5-7.2,13.6-7.2C442,54.1,449.6,60.3,449.6,72.8z"/>
			<path class="st0" d="M500.6,80.4l-33.4,0c1.3,6.7,6,10.6,12.4,10.6c5.3,0,8.6-1.9,10.5-5.5l9.6,0c-2.7,8.8-10.7,14-20,14     c-13,0-22.2-9.3-22.2-22.7c0-13.3,9.1-22.8,22.1-22.8c11.9,0,21.2,9.8,21.2,22.8C500.7,78.3,500.7,79,500.6,80.4z M467.2,73     l23.9,0c-0.6-5.6-5.3-10.3-11.5-10.3C473.1,62.7,468.5,66.8,467.2,73z"/>
			<path class="st0" d="M508.8,98.6V71.9c0-10.8,6.5-17.7,17-17.7c2,0,3.5,0.3,5.2,0.7v8.9c-1.7-0.2-2.7-0.1-3.3-0.1     c-5.8,0-9.1,2.6-9.1,9.9v25.1L508.8,98.6z"/>
			<path class="st0" d="M578.5,80.4l-33.4,0c1.3,6.7,6,10.6,12.4,10.6c5.3,0,8.6-1.9,10.5-5.5l9.6,0c-2.7,8.8-10.7,14-20,14     c-13,0-22.2-9.3-22.2-22.7c0-13.3,9.1-22.8,22.1-22.8c11.9,0,21.2,9.8,21.2,22.8C578.6,78.3,578.6,79,578.5,80.4z M545.1,73     l23.9,0c-0.6-5.6-5.3-10.3-11.5-10.3C551,62.7,546.4,66.8,545.1,73z"/>
		</g>
	</g>
	<g>
		<path class="st0" d="M583.6,99.5c-0.7,0-1.3-0.2-1.9-0.5c-0.5-0.3-1-0.7-1.3-1.3c-0.3-0.5-0.5-1.1-0.5-1.8c0-0.7,0.2-1.3,0.5-1.8    c0.3-0.5,0.7-1,1.3-1.3c0.5-0.3,1.2-0.5,1.9-0.5c0.7,0,1.3,0.2,1.9,0.5c0.5,0.3,1,0.7,1.3,1.3c0.3,0.5,0.5,1.2,0.5,1.8    c0,0.7-0.2,1.3-0.5,1.8c-0.3,0.5-0.7,1-1.3,1.3C585,99.3,584.4,99.5,583.6,99.5z M583.6,98.7c0.6,0,1.1-0.1,1.5-0.4    c0.4-0.2,0.7-0.6,1-1c0.2-0.4,0.3-0.9,0.3-1.4c0-0.5-0.1-1-0.3-1.4c-0.2-0.4-0.6-0.8-1-1c-0.4-0.2-0.9-0.4-1.5-0.4    c-0.6,0-1,0.1-1.5,0.4c-0.4,0.2-0.8,0.6-1,1c-0.2,0.4-0.4,0.9-0.4,1.4c0,0.5,0.1,1,0.4,1.4c0.2,0.4,0.6,0.8,1,1    C582.6,98.6,583.1,98.7,583.6,98.7z M582.1,97.8V94h1.7c0.3,0,0.5,0.1,0.8,0.2c0.2,0.1,0.4,0.2,0.5,0.4c0.1,0.2,0.2,0.4,0.2,0.7    c0,0.4-0.1,0.7-0.4,0.9c-0.3,0.2-0.6,0.3-1.1,0.3H583v1.4H582.1z M583,95.9h0.8c0.2,0,0.4-0.1,0.5-0.2c0.1-0.1,0.2-0.3,0.2-0.5    c0-0.2-0.1-0.4-0.2-0.5c-0.1-0.1-0.3-0.2-0.5-0.2H583V95.9z M584.4,97.8l-1-1.6l0.7-0.2l1.2,1.8H584.4z"/>
	</g>
</g>
</svg>