<svg xmlns="http://www.w3.org/2000/svg" xmlns:xlink="http://www.w3.org/1999/xlink" width="300px" height="80px" viewBox="0 0 300 80" version="1.1">
    <g id="Logo-/-Glow" stroke="none" stroke-width="1" fill="none" fill-rule="evenodd">
        <path d="M36.4986709,12.9812302 L36.4986709,4.24533967 C36.4986709,2.00966587 34.7002402,0.204942117 32.4730022,0.204942117 L22.3569896,0.204942117 C20.1495919,0.204942117 18.3518012,2.00966587 18.3518012,4.24533967 L18.3518012,14.396108 C18.3518012,16.6317818 20.1495919,18.4365055 22.3774699,18.4365055 L31.1033788,18.4365055 C32.4934826,18.4365055 33.6378221,19.5642973 33.6378221,20.979175 L33.6378221,28.3001879 C33.6378221,29.6951558 32.5139629,30.8434996 31.1033788,30.8434996 L4.22996019,30.8434996 C2.00272218,30.8434996 0.204291487,32.6482234 0.204291487,34.8627029 L0.204291487,40.3179782 L0.204291487,45.0141135 C0.204291487,47.249145 2.00272218,49.0538688 4.22996019,49.0538688 L8.27674926,49.0538688 L31.1033788,49.0538688 C32.4934826,49.0538688 33.6378221,50.1816605 33.6378221,51.5965383 L33.6378221,59.0203112 C33.6378221,60.4152791 32.5139629,61.5636229 31.1033788,61.5636229 L22.3774699,61.5636229 C20.1495919,61.5636229 18.3518012,63.3683467 18.3518012,65.6033782 L18.3518012,75.7547888 C18.3518012,77.9898203 20.1495919,79.7945441 22.3774699,79.7945441 L32.4934826,79.7945441 C34.7207206,79.7945441 36.5191513,77.9898203 36.5191513,75.7547888 L36.5191513,66.997704 C36.5191513,65.6033782 37.6430104,64.4550344 39.0529545,64.4550344 L40.8513852,64.4550344 L47.7795034,64.4550344 C50.0067414,64.4550344 51.8051721,62.6503107 51.8051721,60.4152791 L51.8051721,50.2022126 C51.8051721,47.987733 50.0067414,46.1830093 47.7999838,46.1624573 L45.5106647,46.1624573 L44.4892073,46.1624573 L39.0529545,46.1624573 C37.6634908,46.1624573 36.5191513,45.0346655 36.5191513,43.6191455 L36.5191513,36.2775806 C36.5191513,34.8832549 37.6430104,33.7349111 39.0529545,33.7349111 L47.7795034,33.7349111 C50.0067414,33.7349111 51.8051721,31.9301874 51.8051721,29.6945136 L51.8051721,26.7009842 L51.8051721,26.5160161 L51.8051721,19.5437453 C51.8051721,17.3080715 50.0067414,15.5033477 47.7795034,15.5033477 L39.0324742,15.5033477 C37.6430104,15.5033477 36.4986709,14.3755559 36.4986709,12.9812302" id="Fill-682" fill="white"/>
        <path d="M146.62823,17.6979817 C146.955276,16.9593937 147.15944,13.2272764 147.15944,12.3660185 C147.15944,11.5047607 146.975756,7.77264334 146.62823,7.03405533 C145.892218,6.70586535 142.173114,6.50098746 141.31486,6.50098746 C140.456605,6.50098746 136.737502,6.68531334 136.001489,7.03405533 C135.674444,7.77264334 135.47028,11.5047607 135.47028,12.3660185 C135.47028,13.2272764 135.653963,16.9593937 136.001489,17.6979817 C136.737502,18.0261717 140.456605,18.2310496 141.31486,18.2310496 C142.193595,18.2104976 145.912698,18.0261717 146.62823,17.6979817" id="Fill-684" fill="white"/>
        <path d="M75.2862129,72.0633259 L75.2862129,7.2801657 L107.104996,7.2801657 C118.630953,7.2801657 126.928054,14.2318845 126.928054,24.8752589 C126.928054,30.8841541 124.168967,35.0472215 119.999936,37.8365151 C125.538591,41.0766686 129.216733,46.1626499 129.216733,53.5658708 C129.216733,64.680657 120.919632,72.0838779 108.923907,72.0838779 L75.2862129,72.0838779 L75.2862129,72.0633259 Z M106.1853,33.6528957 C111.723315,33.6528957 114.95217,30.4127422 114.95217,25.326761 C114.95217,20.2407797 111.723315,17.4521283 106.1853,17.4521283 L87.2819376,17.4521283 L87.2819376,33.6528957 L106.1853,33.6528957 Z M108.045172,61.8913633 C114.502882,61.8913633 117.261969,58.179798 117.261969,53.0938167 C117.261969,48.0078355 114.502882,43.8447681 108.045172,43.8447681 L87.2819376,43.8447681 L87.2819376,61.8913633 L108.045172,61.8913633 Z" id="Fill-686" fill="white"/>
        <polygon id="Fill-688" fill="white" points="135.613194 72.063069 147.05723 72.063069 147.05723 23.9321784 135.613194 23.9321784"/>
        <path d="M164.019247,33.2016506 L152.493291,33.2016506 L152.493291,23.9526019 L164.019247,23.9526019 L164.019247,12.8378157 L175.463283,12.8378157 L175.463283,23.9526019 L188.378703,23.9526019 L188.378703,33.2016506 L175.463283,33.2016506 L175.463283,59.1228786 C175.463283,61.8916202 176.382978,63.1016201 179.162546,63.1016201 L188.378703,63.1016201 L188.378703,72.0841348 L176.382978,72.0841348 C167.616109,72.0841348 164.019247,67.9210674 164.019247,59.1228786 L164.019247,33.2016506 Z" id="Fill-690" fill="white"/>
        <path d="M191.975692,23.9322426 L203.501649,23.9322426 L203.501649,20.240587 C203.501649,11.4430404 208.569896,7.27997303 217.520448,7.27997303 L227.861105,7.27997303 L227.861105,16.2624878 L218.644948,16.2624878 C215.88586,16.2624878 214.945684,17.4724876 214.945684,20.240587 L214.945684,23.9527946 L227.861105,23.9527946 L227.861105,33.2018433 L214.945684,33.2018433 L214.945684,72.0836852 L203.501649,72.0836852 L203.501649,33.2018433 L191.975692,33.2018433 L191.975692,23.9322426 Z" id="Fill-691" fill="white"/>
        <path d="M267.895388,66.5058043 C265.136301,71.1402836 259.78261,73.4581654 253.324259,73.4581654 C241.798303,73.4581654 234.687141,66.5058043 234.687141,54.0166022 L234.687141,23.9323068 L246.131177,23.9323068 L246.131177,53.0936883 C246.131177,60.0460494 249.176349,63.7370627 256.103827,63.7370627 C263.011465,63.7370627 267.915868,59.1025835 267.915868,50.3255889 L267.915868,23.9323068 L279.359904,23.9323068 L279.359904,72.0631974 L267.915868,72.0631974 L267.915868,66.5058043 L267.895388,66.5058043 Z" id="Fill-692" fill="white"/>
        <polygon id="Fill-693" fill="white" points="288.249399 72.063069 299.693435 72.063069 299.693435 7.2799088 288.249399 7.2799088"/>
    </g>
</svg>