<svg xmlns="http://www.w3.org/2000/svg" width="353" height="100" viewBox="0 0 353 100" fill="none">
  <path d="M58.4051 45.7004H31.2502C28.4654 45.7004 25.8347 46.6408 23.7918 48.2986L23.8303 27.62H58.222C64.8517 27.62 70.5756 23.238 72.127 16.9656C72.7245 14.5613 72.657 12.1474 71.9343 9.79157C70.1612 4.02327 64.6011 0 58.4051 0H31.2502C27.8679 0 24.7169 1.35725 22.5776 3.74212C19.417 7.26127 18.8099 12.2249 18.7713 20.7368C18.7713 20.8919 18.7713 21.047 18.781 21.2118C18.781 21.27 18.781 21.3282 18.781 21.3863V22.5885C17.2681 22.5885 15.9479 22.5691 14.7434 22.54C10.542 22.443 7.77642 22.3849 4.96265 24.2656C1.85015 26.3597 0 29.9564 0 33.9118V88.0271C0 93.6112 3.74848 98.4004 9.11585 99.6704L9.45312 99.7479C10.2626 99.9224 11.0816 100 11.8911 100C14.541 100 17.1332 99.0887 19.2531 97.3631C22.0669 95.0654 23.6954 91.6723 23.7051 88.0271L23.734 73.3398H58.2027C64.8324 73.3398 70.5563 68.9578 72.1077 62.6854C72.7052 60.2811 72.6377 57.8672 71.9054 55.5114C70.1323 49.7431 64.5722 45.7198 58.3761 45.7198L58.4051 45.7004ZM26.3261 7.13524C27.5114 5.81677 29.3133 5.06059 31.2695 5.06059H58.4243C62.4233 5.06059 66.008 7.62966 67.1355 11.2942C67.5884 12.7775 67.6269 14.2317 67.2511 15.7441C66.2489 19.7576 62.539 22.5594 58.2316 22.5594H23.84V21.3863C23.84 21.2312 23.84 21.0761 23.8303 20.921C23.8303 20.8628 23.8303 20.8047 23.8303 20.7465C23.8593 13.524 24.2543 9.43286 26.3261 7.13524ZM16.1117 93.398C14.5218 94.6873 12.4885 95.1818 10.542 94.7649L10.3011 94.7067C7.22715 93.9796 5.07828 91.2264 5.07828 87.9981V33.8924C5.07828 31.6432 6.09972 29.6074 7.79569 28.4731C8.90386 27.7363 10.118 27.5618 12.3825 27.5618C13.0474 27.5618 13.799 27.5715 14.6663 27.6006C15.8323 27.6297 17.2199 27.6684 18.8002 27.6491L18.6942 87.9981C18.6942 90.1115 17.7499 92.0795 16.1117 93.4077V93.398ZM67.2415 61.4348C66.2393 65.4484 62.5293 68.2501 58.222 68.2501H23.7629V66.922C23.7918 59.7576 24.2254 55.1624 26.3165 52.8357C27.5017 51.5172 29.2941 50.761 31.2502 50.761H58.4051C62.4041 50.761 65.9887 53.3301 67.1258 56.9947C67.5787 58.4683 67.6173 59.9224 67.2415 61.4445V61.4348Z" fill="white"/>
  <path d="M101.74 81.6965V26.3984H133.973V33.0296H108.341V48.7445H130.206V55.3757H108.341V81.6772H101.75L101.74 81.6965Z" fill="white"/>
  <path d="M167.372 42.2006H173.964V81.6965H167.372L167.093 75.0266C165.86 77.3145 164.164 79.1759 162.005 80.5913C159.847 82.0164 157.274 82.7241 154.296 82.7241C151.319 82.7241 148.717 82.1812 146.211 81.0857C143.696 79.9902 141.48 78.4778 139.553 76.5389C137.625 74.6 136.132 72.3702 135.053 69.8399C133.983 67.3097 133.443 64.5855 133.443 61.6674C133.443 58.7493 133.964 56.1899 135.014 53.6887C136.064 51.1875 137.519 48.9965 139.389 47.1158C141.258 45.235 143.426 43.7614 145.884 42.695C148.341 41.6286 150.991 41.0954 153.814 41.0954C156.908 41.0954 159.615 41.8225 161.938 43.2864C164.27 44.7503 166.149 46.6407 167.594 48.9577L167.363 42.2006H167.372ZM154.18 76.2869C156.773 76.2869 159.018 75.647 160.916 74.3673C162.815 73.0876 164.279 71.362 165.31 69.171C166.341 66.9897 166.862 64.5758 166.862 61.9388C166.862 59.3019 166.341 56.8201 165.291 54.6485C164.241 52.4769 162.776 50.7512 160.878 49.4715C158.979 48.1919 156.744 47.552 154.18 47.552C151.617 47.552 149.237 48.2016 147.117 49.4909C144.997 50.7803 143.311 52.5157 142.068 54.6873C140.825 56.8588 140.198 59.2728 140.198 61.9388C140.198 64.6048 140.844 67.0091 142.126 69.1904C143.407 71.362 145.113 73.0876 147.233 74.3673C149.353 75.647 151.665 76.2869 154.18 76.2869Z" fill="white"/>
  <path d="M216.524 57.1303V81.6965H209.933V58.5942C209.933 56.5971 209.451 54.7745 208.478 53.1458C207.514 51.5171 206.214 50.218 204.595 49.2583C202.976 48.2985 201.164 47.8138 199.179 47.8138C197.194 47.8138 195.421 48.2985 193.783 49.2583C192.145 50.218 190.844 51.5171 189.88 53.1458C188.917 54.7745 188.425 56.5971 188.425 58.5942V81.6965H181.834V42.2006H188.425V47.1351C189.813 45.2932 191.567 43.8196 193.687 42.7338C195.806 41.6383 198.11 41.0954 200.596 41.0954C203.525 41.0954 206.204 41.8128 208.623 43.2476C211.041 44.6824 212.969 46.6116 214.395 49.0353C215.821 51.4589 216.534 54.1541 216.534 57.1303H216.524Z" fill="white"/>
  <path d="M249.894 82.7144C246.174 82.7144 242.686 81.9679 239.41 80.4846C236.134 79.0013 233.262 76.9364 230.776 74.2995C228.29 71.6625 226.343 68.6184 224.927 65.1574C223.51 61.6965 222.807 57.9931 222.807 54.0377C222.807 50.0823 223.51 46.379 224.927 42.918C226.343 39.457 228.29 36.4032 230.776 33.776C233.262 31.139 236.143 29.0838 239.41 27.5908C242.676 26.1075 246.174 25.361 249.894 25.361C253.614 25.361 257.14 26.1075 260.417 27.5908C263.683 29.0741 266.565 31.139 269.051 33.776C271.537 36.4129 273.483 39.457 274.881 42.918C276.278 46.379 276.981 50.0823 276.981 54.0377C276.981 57.9931 276.278 61.6965 274.881 65.1574C273.483 68.6184 271.537 71.6722 269.051 74.2995C266.565 76.9267 263.683 78.9917 260.417 80.4846C257.14 81.9679 253.633 82.7144 249.894 82.7144ZM249.894 76.0833C252.746 76.0833 255.406 75.5016 257.882 74.3479C260.359 73.1943 262.527 71.5947 264.397 69.5491C266.266 67.5132 267.731 65.1671 268.791 62.5205C269.851 59.8739 270.381 57.0527 270.381 54.0474C270.381 51.0421 269.841 48.2112 268.771 45.5355C267.702 42.8598 266.227 40.5234 264.358 38.5069C262.489 36.4904 260.311 34.9102 257.844 33.7469C255.367 32.5932 252.717 32.0115 249.894 32.0115C247.071 32.0115 244.382 32.5932 241.906 33.7469C239.429 34.9102 237.261 36.5098 235.392 38.5457C233.522 40.5816 232.057 42.9277 230.997 45.5743C229.937 48.2209 229.407 51.0421 229.407 54.0474C229.407 57.0527 229.947 59.9223 231.017 62.5787C232.086 65.235 233.561 67.5811 235.43 69.6073C237.299 71.6334 239.477 73.2234 241.944 74.3673C244.421 75.5113 247.071 76.0833 249.894 76.0833Z" fill="white"/>
  <path d="M304.62 82.7145C301.662 82.7145 298.809 82.2492 296.063 81.3088C293.317 80.3781 290.917 79.0402 288.855 77.3049C286.793 75.5696 285.338 73.5046 284.48 71.1003L290.648 68.7736C291.168 70.2472 292.141 71.5366 293.577 72.6224C295.003 73.7179 296.68 74.5613 298.626 75.1721C300.563 75.7732 302.568 76.0834 304.63 76.0834C306.981 76.0834 309.178 75.6956 311.202 74.92C313.225 74.1445 314.873 73.0587 316.126 71.6626C317.378 70.2666 318.014 68.6379 318.014 66.7669C318.014 64.8958 317.359 63.2671 316.049 62.0456C314.738 60.8241 313.061 59.8449 311.028 59.1275C308.985 58.4004 306.856 57.8478 304.63 57.4503C300.833 56.8202 297.441 55.9186 294.444 54.7455C291.447 53.5725 289.077 51.9341 287.342 49.8304C285.598 47.7266 284.731 44.9443 284.731 41.493C284.731 38.2841 285.656 35.4726 287.497 33.0781C289.347 30.6835 291.785 28.8221 294.82 27.5133C297.856 26.1949 301.132 25.5356 304.639 25.5356C307.54 25.5356 310.363 25.9913 313.1 26.9026C315.837 27.8139 318.246 29.1323 320.346 30.8677C322.437 32.603 323.941 34.7261 324.856 37.2274L318.612 39.5153C318.092 38.0126 317.118 36.7135 315.683 35.6277C314.256 34.5323 312.58 33.6888 310.662 33.0974C308.735 32.5061 306.73 32.2055 304.639 32.2055C302.307 32.1765 300.139 32.5642 298.125 33.3495C296.111 34.1348 294.473 35.2303 293.221 36.6263C291.968 38.0223 291.332 39.6413 291.332 41.4833C291.332 43.6937 291.91 45.3902 293.076 46.5633C294.242 47.7363 295.832 48.6088 297.846 49.1905C299.86 49.7722 302.124 50.286 304.639 50.732C308.195 51.333 311.5 52.2928 314.536 53.5919C317.571 54.8909 320.009 56.6263 321.859 58.7882C323.709 60.9501 324.625 63.6064 324.625 66.7669C324.625 69.9273 323.7 72.7872 321.859 75.1818C320.009 77.5764 317.571 79.4377 314.536 80.7465C311.5 82.065 308.205 82.7242 304.639 82.7242L304.62 82.7145Z" fill="white"/>
  <path d="M330.592 55.3854L338.965 43.8294L330.63 32.3122H335.371L341.346 40.5138L347.291 32.3122H352.032L343.697 43.8294L352.071 55.3854H347.33L341.336 47.0965L335.313 55.3854H330.572H330.592Z" fill="white"/>
</svg>