<svg xmlns="http://www.w3.org/2000/svg" width="87" height="36" viewBox="0 0 87 36" fill="none">
<path fill-rule="evenodd" clip-rule="evenodd" d="M15.7447 15.8678C15.7447 16.0617 15.6832 16.5125 15.1113 16.5125H9.31982C9.41294 13.8682 11.134 12.9234 12.726 12.9234C14.588 12.9234 15.7447 14.0514 15.7447 15.8678ZM12.7485 11.6797C9.89986 11.6797 7.83203 13.8173 7.83203 16.7624C7.83203 20.3047 9.80724 22.4199 13.1156 22.4199C14.8181 22.4199 16.5413 21.9683 16.5413 21.1057V20.5211L16.4353 20.5638C15.5366 20.9277 14.605 21.1119 13.666 21.1119C11.0991 21.1119 9.65498 19.9475 9.3727 17.6504H15.6613C16.7319 17.6504 17.2523 17.2136 17.2523 16.3153C17.2523 13.499 15.4846 11.6797 12.7485 11.6797Z" fill="white"/>
<path fill-rule="evenodd" clip-rule="evenodd" d="M25.2607 11.6802C23.8581 11.6802 22.0591 12.2618 21.0723 13.8714V11.8504H20.9948C19.887 11.8504 19.6562 11.8504 19.6562 12.5897V22.2077H21.0723V16.6565C21.0723 14.2201 22.937 12.9454 24.779 12.9454C26.5687 12.9454 27.6372 14.0621 27.6372 15.9324V22.2716H27.7147C28.8218 22.2716 29.0305 22.2489 29.0305 21.5323V15.3788C29.0305 13.0974 27.5859 11.6802 25.2607 11.6802Z" fill="white"/>
<path fill-rule="evenodd" clip-rule="evenodd" d="M35.1018 11.6802C32.7742 11.6802 31.1484 12.9911 31.1484 14.8679C31.1484 16.9036 32.9252 17.4103 34.4925 17.8574C35.7748 18.2228 36.8822 18.5388 36.8822 19.5734C36.8822 20.622 35.6768 21.0912 34.4827 21.0912C33.586 21.0912 32.7011 20.895 31.9239 20.5239L31.8137 20.4712V21.1064C31.8137 21.9691 33.1679 22.4203 34.5057 22.4203C36.4049 22.4203 38.3212 21.4938 38.3212 19.4244C38.3212 17.5995 36.7417 17.148 35.2142 16.7114C33.8637 16.325 32.5879 15.9606 32.5879 14.6549C32.5879 13.816 33.4357 12.9669 35.0561 12.9669C36.214 12.9669 37.3866 13.5247 37.3866 14.591V14.9682H37.808C38.2943 14.9682 38.5737 14.6367 38.5737 14.0586C38.5737 12.9057 37.3568 11.6802 35.1018 11.6802Z" fill="white"/>
<path fill-rule="evenodd" clip-rule="evenodd" d="M48.9689 16.8264C48.9689 19.3219 47.439 21.1335 45.3311 21.1335C43.2232 21.1335 41.6933 19.3219 41.6933 16.8264C41.6933 14.3461 43.0191 12.9238 45.3311 12.9238C47.6768 12.9238 48.9689 14.3096 48.9689 16.8264ZM45.3301 11.6802C42.0742 11.6802 40.207 13.5559 40.207 16.8267C40.207 20.1203 42.3135 22.4203 45.3301 22.4203C48.3464 22.4203 50.4528 20.1203 50.4528 16.8267C50.4528 13.5559 48.5857 11.6802 45.3301 11.6802Z" fill="white"/>
<path fill-rule="evenodd" clip-rule="evenodd" d="M52.7383 8.30939V22.2073H54.1546V7.57031H54.0771C52.969 7.57031 52.7383 7.57031 52.7383 8.30939Z" fill="white"/>
<path fill-rule="evenodd" clip-rule="evenodd" d="M64.9334 11.948C63.9751 15.0506 62.7869 17.8838 61.3029 20.6047L57.8315 11.9417L57.8117 11.8926H56.2148V12.1369L60.4639 22.308L60.4849 22.3584L60.5385 22.3562C60.9857 22.3365 61.4239 22.2431 61.9594 22.0537L61.9858 22.0444L62.0004 22.0197C63.8427 18.8875 65.323 15.6089 66.5254 11.9972L66.5601 11.8926H64.9503L64.9334 11.948Z" fill="white"/>
<path fill-rule="evenodd" clip-rule="evenodd" d="M68.3165 8.43301C68.3243 8.99886 68.7799 9.45089 69.3339 9.4429C69.8882 9.43466 70.3308 8.9694 70.3228 8.40355C70.3149 7.8377 69.8591 7.38567 69.3053 7.39366C68.7513 7.4019 68.3087 7.86716 68.3165 8.43301Z" fill="white"/>
<path fill-rule="evenodd" clip-rule="evenodd" d="M68.5391 12.5892V22.2071H69.9553V11.8501H69.8779C68.7698 11.8501 68.5391 11.8501 68.5391 12.5892Z" fill="white"/>
<path fill-rule="evenodd" clip-rule="evenodd" d="M72.7262 20.7431H72.4755V21.1182H72.7262C72.8455 21.1182 72.9501 21.0788 72.9501 20.929C72.9501 20.777 72.8396 20.7431 72.7262 20.7431ZM72.9688 21.7275L72.7569 21.3558C72.7183 21.2829 72.6821 21.2432 72.6046 21.2432H72.4763V21.7275H72.3331V20.6002H72.7239C72.939 20.6002 73.0941 20.7006 73.0941 20.9262C73.0941 21.0697 73.0135 21.2063 72.8373 21.2307C72.8524 21.249 73.0074 21.4898 73.1479 21.7275H72.9688ZM72.6983 20.2649C72.2117 20.2649 71.8146 20.6673 71.8146 21.1673C71.8146 21.664 72.2117 22.0661 72.6983 22.0661C73.1876 22.0661 73.5813 21.664 73.5813 21.1673C73.5813 20.6673 73.1876 20.2649 72.6983 20.2649ZM72.6989 22.2363C72.1196 22.2363 71.6484 21.7551 71.6484 21.167C71.6484 20.5727 72.1196 20.0942 72.6989 20.0942C73.2773 20.0942 73.7488 20.5727 73.7488 21.167C73.7488 21.7551 73.2773 22.2363 72.6989 22.2363Z" fill="white"/>
<path fill-rule="evenodd" clip-rule="evenodd" d="M5.31927 8.12402C3.05079 8.12402 1.64136 9.66357 1.64136 12.1421V12.9361H0.558689C0 12.9361 0 13.3253 0 14.101V14.1801H1.64136V22.2074H3.03442V14.1801H6.38289V14.101C6.38289 13.3253 6.38289 12.9361 5.82395 12.9361H3.03442V12.355C3.03442 10.3188 3.87367 9.41073 5.75528 9.41073C6.07641 9.41073 6.48089 9.47612 6.78614 9.57721L6.88756 9.61091V9.05479C6.88756 8.32021 5.90167 8.12402 5.31927 8.12402Z" fill="white"/>
<path fill-rule="evenodd" clip-rule="evenodd" d="M0.933594 30.9433C0.933594 30.0949 1.01058 29.3007 1.16504 28.5611C1.31925 27.8215 1.54165 27.1733 1.83248 26.6162H2.31614C2.02946 27.2342 1.81391 27.9126 1.66971 28.6525C1.52528 29.392 1.45318 30.1526 1.45318 30.9336C1.45318 31.7021 1.52674 32.4529 1.67411 33.186C1.82148 33.9191 2.03338 34.5885 2.31003 35.1933H1.83248C1.5397 34.6492 1.31681 34.0137 1.16357 33.2869C1.01009 32.5603 0.933594 31.779 0.933594 30.9433Z" fill="white"/>
<mask id="mask0_2584_117123" style="mask-type:luminance" maskUnits="userSpaceOnUse" x="0" y="0" width="87" height="36">
<path fill-rule="evenodd" clip-rule="evenodd" d="M0 36H86.6667V0H0V36Z" fill="white"/>
</mask>
<g mask="url(#mask0_2584_117123)">
<path fill-rule="evenodd" clip-rule="evenodd" d="M2.90234 33.6372H3.39798V26.1646H2.90234V33.6372Z" fill="white"/>
<path fill-rule="evenodd" clip-rule="evenodd" d="M5.57575 28.9454C5.31302 28.9454 5.10333 29.0831 4.94716 29.3585C4.79099 29.634 4.69886 30.0149 4.671 30.5014H6.38201C6.38201 29.9989 6.31236 29.6138 6.17281 29.3465C6.0335 29.0791 5.83456 28.9454 5.57575 28.9454ZM5.7094 33.7337C5.22549 33.7337 4.84375 33.4965 4.56416 33.0228C4.28433 32.549 4.14453 31.8911 4.14453 31.0489C4.14453 30.2005 4.27455 29.5263 4.53434 29.0269C4.79414 28.5274 5.14289 28.2778 5.58085 28.2778C5.99094 28.2778 6.3155 28.4947 6.55427 28.9285C6.79329 29.3624 6.9128 29.9347 6.9128 30.6456V31.1498H4.65825C4.66827 31.7678 4.7653 32.2368 4.94933 32.557C5.13336 32.877 5.39266 33.0373 5.72724 33.0373C6.07966 33.0373 6.42792 32.9187 6.77227 32.6818V33.3924C6.59729 33.5143 6.43134 33.6014 6.27517 33.6543C6.11901 33.7069 5.93033 33.7337 5.7094 33.7337Z" fill="white"/>
<path fill-rule="evenodd" clip-rule="evenodd" d="M8.0994 28.3735V31.7881C8.0994 32.2172 8.16001 32.5374 8.28148 32.7486C8.40294 32.96 8.59308 33.0656 8.8519 33.0656C9.19405 33.0656 9.44456 32.9151 9.60292 32.614C9.76105 32.3133 9.84023 31.8216 9.84023 31.1396V28.3735H10.3359V33.6372H9.92699L9.85514 32.931H9.82826C9.72683 33.1904 9.58606 33.3891 9.4057 33.5268C9.22558 33.6641 9.02004 33.7333 8.78909 33.7333C8.39097 33.7333 8.0928 33.581 7.89484 33.277C7.69664 32.9727 7.59766 32.4862 7.59766 31.8171V28.3735H8.0994Z" fill="white"/>
<path fill-rule="evenodd" clip-rule="evenodd" d="M12.7171 28.9551C12.3828 28.9551 12.1408 29.1041 11.9915 29.4017C11.8422 29.6994 11.7654 30.1734 11.7615 30.8232V31.0009C11.7615 31.7404 11.8383 32.2696 11.9915 32.5883C12.1447 32.9068 12.3906 33.0661 12.7291 33.0661C13.0119 33.0661 13.2333 32.8819 13.3936 32.5137C13.5537 32.1456 13.6338 31.6381 13.6338 30.9914C13.6338 30.3349 13.5537 29.8317 13.3936 29.4808C13.2333 29.1303 13.0077 28.9551 12.7171 28.9551ZM12.7885 33.7337C12.5756 33.7337 12.3808 33.6703 12.2048 33.544C12.0286 33.4174 11.8808 33.223 11.7613 32.9604H11.7256C11.7495 33.2676 11.7613 33.5589 11.7613 33.8345V36.0003H11.2656V28.3739H11.6686L11.7376 29.0943H11.7613C11.8886 28.806 12.0369 28.5978 12.2063 28.47C12.3754 28.342 12.5695 28.2778 12.7885 28.2778C13.2225 28.2778 13.5573 28.5162 13.7934 28.9932C14.0293 29.4704 14.1473 30.1396 14.1473 31.0008C14.1473 31.8654 14.0273 32.5371 13.7873 33.0155C13.5475 33.4943 13.2144 33.7337 12.7885 33.7337Z" fill="white"/>
<path fill-rule="evenodd" clip-rule="evenodd" d="M16.3836 28.2773C16.5288 28.2773 16.6593 28.2966 16.7749 28.3348L16.706 29.0743C16.5706 29.0264 16.4511 29.0024 16.3477 29.0024C16.083 29.0024 15.8565 29.1754 15.6685 29.5211C15.4804 29.8668 15.3863 30.2976 15.3863 30.8131V33.6371H14.8906V28.3734H15.2995L15.3564 29.3481H15.3804C15.5016 29.0057 15.648 28.7414 15.8191 28.5559C15.9904 28.3702 16.1786 28.2773 16.3836 28.2773Z" fill="white"/>
<path fill-rule="evenodd" clip-rule="evenodd" d="M17.5994 31.0009C17.5994 31.6731 17.683 32.1855 17.8502 32.5377C18.0173 32.8899 18.2632 33.0658 18.5878 33.0658C18.9123 33.0658 19.1584 32.8906 19.3268 32.5402C19.4949 32.1895 19.5793 31.6765 19.5793 31.0009C19.5793 30.3317 19.4949 29.8235 19.3268 29.4763C19.1584 29.1286 18.9104 28.9551 18.5819 28.9551C18.2573 28.9551 18.0124 29.1264 17.8472 29.4688C17.682 29.8115 17.5994 30.3222 17.5994 31.0009ZM20.093 31.0008C20.093 31.8589 19.9586 32.5288 19.69 33.0108C19.4211 33.4925 19.0499 33.7334 18.576 33.7334C18.2835 33.7334 18.0237 33.6231 17.7966 33.4019C17.5696 33.181 17.3946 32.8643 17.2712 32.4512C17.1478 32.0381 17.0859 31.5549 17.0859 31.0008C17.0859 30.1426 17.2194 29.4744 17.4863 28.9957C17.7529 28.5172 18.1232 28.2778 18.597 28.2778C19.0548 28.2778 19.4185 28.5227 19.6883 29.0124C19.9581 29.5024 20.093 30.1651 20.093 31.0008Z" fill="white"/>
<path fill-rule="evenodd" clip-rule="evenodd" d="M20.8359 33.6372H21.3316V26.1646H20.8359V33.6372Z" fill="white"/>
<path fill-rule="evenodd" clip-rule="evenodd" d="M22.2601 33.6374H22.7557V28.3737H22.2601V33.6374ZM22.2188 26.9471C22.2188 26.7646 22.2466 26.6311 22.3023 26.5462C22.3581 26.4614 22.4277 26.4189 22.5113 26.4189C22.591 26.4189 22.6596 26.4621 22.7176 26.5487C22.7752 26.6349 22.8041 26.7681 22.8041 26.9471C22.8041 27.1266 22.7752 27.2601 22.7176 27.3482C22.6596 27.4363 22.591 27.4803 22.5113 27.4803C22.4277 27.4803 22.3581 27.4363 22.3023 27.3482C22.2466 27.2601 22.2188 27.1266 22.2188 26.9471Z" fill="white"/>
<path fill-rule="evenodd" clip-rule="evenodd" d="M24.9217 33.0662C25.26 33.0662 25.5056 32.9181 25.6579 32.6221C25.8101 32.3258 25.8861 31.8478 25.8861 31.1884V31.0204C25.8861 30.2743 25.8089 29.7422 25.6549 29.4234C25.5005 29.105 25.2541 28.9455 24.9159 28.9455C24.625 28.9455 24.4024 29.1274 24.2484 29.4908C24.094 29.8543 24.017 30.3672 24.017 31.0299C24.017 31.7023 24.0935 32.2098 24.2467 32.5522C24.4002 32.8949 24.625 33.0662 24.9217 33.0662ZM25.9136 32.9315H25.8868C25.6578 33.4664 25.3154 33.7338 24.8596 33.7338C24.4316 33.7338 24.0985 33.4981 23.8607 33.0279C23.6229 32.5571 23.5039 31.8879 23.5039 31.0203C23.5039 30.1527 23.6234 29.4785 23.8622 28.9983C24.1012 28.518 24.4336 28.2779 24.8596 28.2779C25.3036 28.2779 25.6441 28.5373 25.8809 29.0562H25.9198L25.8987 28.6765L25.8868 28.3069V26.165H26.3826V33.6377H25.9794L25.9136 32.9315Z" fill="white"/>
<path fill-rule="evenodd" clip-rule="evenodd" d="M28.5603 28.9455C28.2976 28.9455 28.0879 29.0832 27.9317 29.3586C27.7756 29.6341 27.6834 30.015 27.6556 30.5015H29.3666C29.3666 29.999 29.2969 29.6139 29.1574 29.3466C29.0181 29.0792 28.8191 28.9455 28.5603 28.9455ZM28.6938 33.7332C28.2099 33.7332 27.8281 33.496 27.5485 33.0223C27.2687 32.5486 27.1289 31.8906 27.1289 31.0484C27.1289 30.2 27.2589 29.5259 27.5187 29.0264C27.7785 28.5269 28.1273 28.2773 28.5652 28.2773C28.9753 28.2773 29.2999 28.4942 29.5387 28.9281C29.7777 29.3619 29.8972 29.9342 29.8972 30.6451V31.1493H27.6426C27.6526 31.7673 27.7497 32.2363 27.9337 32.5565C28.1177 32.8765 28.377 33.0368 28.7116 33.0368C29.064 33.0368 29.4123 32.9182 29.7567 32.6813V33.392C29.5817 33.5138 29.4157 33.6009 29.2596 33.6538C29.1034 33.7065 28.9147 33.7332 28.6938 33.7332Z" fill="white"/>
<path fill-rule="evenodd" clip-rule="evenodd" d="M32.9803 33.0755C33.2887 33.0755 33.5312 32.9392 33.7074 32.6671C33.8836 32.395 33.9718 32.0139 33.9718 31.5242V31.0487L33.4759 31.0824C33.082 31.1046 32.7975 31.2032 32.6235 31.3777C32.4492 31.5521 32.3622 31.8234 32.3622 32.1916C32.3622 32.4797 32.4162 32.6991 32.525 32.8498C32.6335 33.0001 32.7853 33.0755 32.9803 33.0755ZM34.1012 33.6374L34.0027 32.888H33.9788C33.8155 33.2178 33.6528 33.4412 33.4905 33.5582C33.3282 33.6748 33.1256 33.7334 32.8829 33.7334C32.5584 33.7334 32.3042 33.5989 32.1199 33.3301C31.9359 33.0608 31.8438 32.6784 31.8438 32.1822C31.8438 31.1191 32.3721 30.5622 33.4294 30.5108L33.9847 30.4819V30.1554C33.9847 29.7423 33.9294 29.4375 33.819 29.2406C33.7085 29.0437 33.5318 28.9451 33.2889 28.9451C33.0164 28.9451 32.7077 29.0796 32.3633 29.3484L32.2111 28.7386C32.3721 28.5979 32.5488 28.4873 32.7412 28.4074C32.933 28.3275 33.1256 28.2871 33.3189 28.2871C33.709 28.2871 33.9981 28.4266 34.1863 28.7049C34.3745 28.9835 34.4683 29.43 34.4683 30.0448V33.6374H34.1012Z" fill="white"/>
<path fill-rule="evenodd" clip-rule="evenodd" d="M36.6737 33.7329C36.2 33.7329 35.8332 33.4985 35.5734 33.0293C35.3136 32.5603 35.1836 31.8968 35.1836 31.0387C35.1836 30.1584 35.3156 29.4777 35.5793 28.9974C35.843 28.5172 36.2189 28.2773 36.7064 28.2773C36.8638 28.2773 37.021 28.3046 37.1784 28.359C37.3355 28.4131 37.4589 28.4773 37.5486 28.5509L37.3964 29.2281C37.2869 29.1577 37.1674 29.0993 37.0381 29.0529C36.9085 29.0062 36.7942 28.9832 36.6944 28.9832C36.0297 28.9832 35.6973 29.6651 35.6973 31.029C35.6973 31.6759 35.7782 32.1719 35.9405 32.5178C36.1028 32.8638 36.3433 33.0365 36.6617 33.0365C36.9344 33.0365 37.214 32.9422 37.5007 32.753V33.4591C37.2817 33.6416 37.0061 33.7329 36.6737 33.7329Z" fill="white"/>
<path fill-rule="evenodd" clip-rule="evenodd" d="M39.3998 28.9455C39.137 28.9455 38.9274 29.0832 38.7712 29.3586C38.615 29.6341 38.5229 30.015 38.495 30.5015H40.206C40.206 29.999 40.1364 29.6139 39.9968 29.3466C39.8575 29.0792 39.6586 28.9455 39.3998 28.9455ZM39.5336 33.7332C39.0497 33.7332 38.668 33.496 38.3884 33.0223C38.1085 32.5486 37.9688 31.8906 37.9688 31.0484C37.9688 30.2 38.0988 29.5259 38.3586 29.0264C38.6184 28.5269 38.9671 28.2773 39.4051 28.2773C39.8152 28.2773 40.1397 28.4942 40.3785 28.9281C40.6175 29.3619 40.737 29.9342 40.737 30.6451V31.1493H38.4825C38.4925 31.7673 38.5895 32.2363 38.7735 32.5565C38.9576 32.8765 39.2169 33.0368 39.5515 33.0368C39.9039 33.0368 40.2521 32.9182 40.5965 32.6813V33.392C40.4215 33.5138 40.2556 33.6009 40.0994 33.6538C39.9432 33.7065 39.7546 33.7332 39.5336 33.7332Z" fill="white"/>
<path fill-rule="evenodd" clip-rule="evenodd" d="M42.5213 33.0752C42.6091 33.0752 42.6936 33.0647 42.7753 33.0437C42.8569 33.023 42.9219 33.0015 42.9696 32.9791V33.5891C42.9155 33.6308 42.8364 33.665 42.7318 33.6922C42.6274 33.7194 42.5333 33.7331 42.4497 33.7331C41.8167 33.7331 41.5 33.1967 41.5 32.1239V28.9929H41.0312V28.6085L41.5 28.2773L41.7092 27.1533H41.9959V28.3734H42.9456V28.9929H41.9959V32.0907C41.9959 32.4075 42.0426 32.6508 42.1362 32.8203C42.2298 32.9903 42.3581 33.0752 42.5213 33.0752Z" fill="white"/>
<path fill-rule="evenodd" clip-rule="evenodd" d="M44.3905 33.0754C44.6992 33.0754 44.9414 32.9391 45.1179 32.6671C45.2938 32.395 45.382 32.0138 45.382 31.5241V31.0486L44.8862 31.0823C44.492 31.1045 44.208 31.2031 44.0337 31.3776C43.8595 31.5521 43.7725 31.8234 43.7725 32.1916C43.7725 32.4796 43.8265 32.699 43.9352 32.8498C44.0435 33 44.1953 33.0754 44.3905 33.0754ZM45.5114 33.6374L45.4129 32.888H45.3889C45.2257 33.2178 45.0629 33.4412 44.9006 33.5582C44.7384 33.6748 44.536 33.7334 44.2931 33.7334C43.9685 33.7334 43.7143 33.5989 43.5301 33.3301C43.346 33.0608 43.2539 32.6784 43.2539 32.1822C43.2539 31.1191 43.7825 30.5622 44.8395 30.5108L45.3948 30.4819V30.1554C45.3948 29.7423 45.3396 29.4375 45.2291 29.2406C45.1189 29.0437 44.9419 28.9451 44.6993 28.9451C44.4265 28.9451 44.1178 29.0796 43.7735 29.3484L43.6212 28.7386C43.7825 28.5979 43.959 28.4873 44.1513 28.4074C44.3434 28.3275 44.536 28.2871 44.7291 28.2871C45.1191 28.2871 45.4083 28.4266 45.5964 28.7049C45.7846 28.9835 45.8787 29.43 45.8787 30.0448V33.6374H45.5114Z" fill="white"/>
<path fill-rule="evenodd" clip-rule="evenodd" d="M47.8338 33.0752C47.9213 33.0752 48.0059 33.0647 48.0878 33.0437C48.1691 33.023 48.2342 33.0015 48.2818 32.9791V33.5891C48.228 33.6308 48.1489 33.665 48.0443 33.6922C47.9399 33.7194 47.8458 33.7331 47.7622 33.7331C47.129 33.7331 46.8125 33.1967 46.8125 32.1239V28.9929H46.3438V28.6085L46.8125 28.2773L47.0217 27.1533H47.3084V28.3734H48.2579V28.9929H47.3084V32.0907C47.3084 32.4075 47.3551 32.6508 47.4487 32.8203C47.5423 32.9903 47.6706 33.0752 47.8338 33.0752Z" fill="white"/>
<path fill-rule="evenodd" clip-rule="evenodd" d="M50.06 28.9455C49.7973 28.9455 49.5876 29.0832 49.4314 29.3586C49.275 29.6341 49.1831 30.015 49.1553 30.5015H50.8663C50.8663 29.999 50.7966 29.6139 50.6571 29.3466C50.5178 29.0792 50.3188 28.9455 50.06 28.9455ZM50.1938 33.7332C49.7099 33.7332 49.3281 33.496 49.0485 33.0223C48.7689 32.5486 48.6289 31.8906 48.6289 31.0484C48.6289 30.2 48.7589 29.5259 49.0187 29.0264C49.2785 28.5269 49.6273 28.2773 50.0652 28.2773C50.4753 28.2773 50.7999 28.4942 51.0389 28.9281C51.2777 29.3619 51.3972 29.9342 51.3972 30.6451V31.1493H49.1426C49.1524 31.7673 49.2497 32.2363 49.4337 32.5565C49.6177 32.8765 49.8773 33.0368 50.2116 33.0368C50.5638 33.0368 50.9123 32.9182 51.2567 32.6813V33.392C51.0817 33.5138 50.9157 33.6009 50.7596 33.6538C50.6034 33.7065 50.4147 33.7332 50.1938 33.7332Z" fill="white"/>
<path fill-rule="evenodd" clip-rule="evenodd" d="M53.1599 30.9433C53.1599 31.7852 53.0829 32.5697 52.9284 33.2966C52.7742 34.0232 52.5518 34.6557 52.261 35.1933H51.7832C52.0599 34.5915 52.272 33.9231 52.4194 33.1885C52.5665 32.4537 52.6403 31.7021 52.6403 30.9336C52.6403 30.1526 52.5682 29.392 52.4238 28.6525C52.2793 27.9126 52.064 27.2342 51.7773 26.6162H52.261C52.5538 27.1763 52.7767 27.8273 52.9302 28.5684C53.0834 29.3097 53.1599 30.1012 53.1599 30.9433Z" fill="white"/>
<path fill-rule="evenodd" clip-rule="evenodd" d="M55.4789 27.2801H55.0187V29.6021H54.7452V27.2801H54.4219V27.0999L54.7452 26.9558V26.8093C54.7452 26.1626 54.939 25.8394 55.3274 25.8394C55.4229 25.8394 55.5349 25.8673 55.6636 25.9232L55.5928 26.2427C55.4872 26.193 55.397 26.1681 55.3222 26.1681C55.2191 26.1681 55.1426 26.2183 55.093 26.3181C55.0436 26.4184 55.0187 26.5787 55.0187 26.7996V26.9703H55.4789V27.2801Z" fill="white"/>
<path fill-rule="evenodd" clip-rule="evenodd" d="M55.9268 28.2835C55.9268 28.6199 55.9727 28.8758 56.0651 29.052C56.1575 29.228 56.2934 29.3161 56.4725 29.3161C56.6519 29.3161 56.7878 29.2285 56.8806 29.0532C56.9735 28.878 57.0202 28.6214 57.0202 28.2835C57.0202 27.949 56.9735 27.6949 56.8806 27.5212C56.7878 27.3475 56.6507 27.2606 56.4693 27.2606C56.2899 27.2606 56.155 27.3462 56.0636 27.5177C55.9725 27.6889 55.9268 27.9443 55.9268 28.2835ZM57.305 28.2837C57.305 28.713 57.2307 29.048 57.0823 29.2886C56.934 29.5297 56.7287 29.6503 56.4672 29.6503C56.3056 29.6503 56.1622 29.5949 56.0368 29.4845C55.9117 29.374 55.8146 29.2155 55.7467 29.0088C55.6785 28.8024 55.6445 28.5608 55.6445 28.2837C55.6445 27.8546 55.7181 27.5204 55.8652 27.2813C56.0128 27.0419 56.2172 26.9224 56.4789 26.9224C56.7316 26.9224 56.9325 27.0447 57.0816 27.2898C57.2304 27.5346 57.305 27.8659 57.305 28.2837Z" fill="white"/>
<path fill-rule="evenodd" clip-rule="evenodd" d="M58.5394 26.9229C58.6196 26.9229 58.6917 26.9323 58.7555 26.9516L58.7176 27.3215C58.6428 27.2975 58.5766 27.2853 58.5196 27.2853C58.3732 27.2853 58.2484 27.3719 58.1445 27.5446C58.0406 27.7178 57.9886 27.933 57.9886 28.1906V29.6026H57.7148V26.9708H57.9409L57.9722 27.4585H57.9851C58.0524 27.287 58.1332 27.155 58.2278 27.0621C58.3222 26.9693 58.426 26.9229 58.5394 26.9229Z" fill="white"/>
<path fill-rule="evenodd" clip-rule="evenodd" d="M59.8403 29.6019H60.1141V26.9701H59.8403V29.6019ZM59.8164 26.257C59.8164 26.1659 59.832 26.0988 59.8628 26.0563C59.8936 26.0139 59.932 25.9927 59.978 25.9927C60.0222 25.9927 60.0598 26.0144 60.0918 26.0576C60.1239 26.101 60.1397 26.1671 60.1397 26.257C60.1397 26.3466 60.1239 26.4135 60.0918 26.4577C60.0598 26.5014 60.0222 26.5233 59.978 26.5233C59.932 26.5233 59.8936 26.5014 59.8628 26.4577C59.832 26.4135 59.8164 26.3466 59.8164 26.257Z" fill="white"/>
<path fill-rule="evenodd" clip-rule="evenodd" d="M61.8619 29.6026V27.9C61.8619 27.6854 61.8282 27.5254 61.7612 27.4198C61.694 27.3142 61.5894 27.2613 61.4464 27.2613C61.257 27.2613 61.1187 27.3357 61.0309 27.4847C60.9427 27.6335 60.899 27.8793 60.899 28.2218V29.6026H60.625V26.9708H60.8479L60.8921 27.3307H60.9056C60.9613 27.2012 61.0402 27.1008 61.1414 27.0294C61.2423 26.9583 61.355 26.9229 61.4794 26.9229C61.6969 26.9229 61.8607 26.999 61.9706 27.1522C62.0806 27.305 62.1356 27.5494 62.1356 27.8856V29.6026H61.8619Z" fill="white"/>
<path fill-rule="evenodd" clip-rule="evenodd" d="M62.6071 26.257C62.6071 26.1659 62.6225 26.0988 62.6533 26.0563C62.6841 26.0139 62.7227 25.9927 62.7687 25.9927C62.8129 25.9927 62.8505 26.0144 62.8826 26.0576C62.9146 26.101 62.9302 26.1674 62.9302 26.257C62.9302 26.3466 62.9146 26.4135 62.8826 26.4577C62.8505 26.5014 62.8129 26.5233 62.7687 26.5233C62.7227 26.5233 62.6841 26.5014 62.6533 26.4577C62.6225 26.4135 62.6071 26.3466 62.6071 26.257ZM62.4102 30.7835C62.3058 30.7835 62.2213 30.7632 62.1562 30.7233V30.3991C62.2323 30.4313 62.3068 30.447 62.3806 30.447C62.4664 30.447 62.5294 30.413 62.5695 30.3452C62.6096 30.2768 62.6296 30.1732 62.6296 30.0341V26.97H62.9034V30.0054C62.9034 30.5241 62.7389 30.7835 62.4102 30.7835Z" fill="white"/>
<path fill-rule="evenodd" clip-rule="evenodd" d="M64.106 27.2558C63.9608 27.2558 63.8452 27.3247 63.7589 27.4622C63.6727 27.6 63.6218 27.7907 63.6064 28.0338H64.5513C64.5513 27.7824 64.5127 27.59 64.4359 27.4564C64.3587 27.3227 64.249 27.2558 64.106 27.2558ZM64.1803 29.6503C63.9132 29.6503 63.7023 29.5317 63.5478 29.2948C63.3934 29.058 63.3164 28.7287 63.3164 28.3079C63.3164 27.8838 63.388 27.5466 63.5312 27.297C63.6747 27.0472 63.8673 26.9224 64.1095 26.9224C64.3358 26.9224 64.5152 27.0309 64.6469 27.2478C64.7789 27.4648 64.8446 27.7505 64.8446 28.106V28.3583H63.5999C63.6053 28.6671 63.6588 28.902 63.7607 29.0617C63.8624 29.222 64.0056 29.3018 64.1901 29.3018C64.3849 29.3018 64.5772 29.2427 64.7674 29.1241V29.4795C64.6706 29.5404 64.5792 29.5841 64.4927 29.6106C64.4064 29.637 64.3023 29.6503 64.1803 29.6503Z" fill="white"/>
<path fill-rule="evenodd" clip-rule="evenodd" d="M65.9633 29.6508C65.7018 29.6508 65.4992 29.5334 65.3557 29.2991C65.2122 29.0644 65.1406 28.7325 65.1406 28.3037C65.1406 27.8634 65.2135 27.5234 65.3589 27.283C65.5045 27.0429 65.7123 26.9229 65.9814 26.9229C66.0684 26.9229 66.1551 26.9366 66.2421 26.9635C66.3289 26.991 66.3968 27.0229 66.4467 27.0596L66.3624 27.3983C66.302 27.3632 66.236 27.3339 66.1644 27.3107C66.093 27.2875 66.0297 27.2758 65.975 27.2758C65.6077 27.2758 65.4241 27.617 65.4241 28.2989C65.4241 28.6221 65.4691 28.8703 65.5585 29.043C65.648 29.2162 65.7809 29.3023 65.9569 29.3023C66.1075 29.3023 66.2619 29.2554 66.42 29.1608V29.5137C66.2991 29.6051 66.1468 29.6508 65.9633 29.6508Z" fill="white"/>
<path fill-rule="evenodd" clip-rule="evenodd" d="M67.3658 29.3209C67.414 29.3209 67.4609 29.3157 67.5059 29.3054C67.5511 29.2949 67.5868 29.2842 67.6132 29.273V29.5777C67.5836 29.5987 67.5399 29.6159 67.4822 29.6294C67.4243 29.6431 67.3724 29.6499 67.3263 29.6499C66.9765 29.6499 66.8018 29.3818 66.8018 28.8456V27.2799H66.543V27.0877L66.8018 26.9222L66.9174 26.3604H67.0757V26.9701H67.6V27.2799H67.0757V28.8287C67.0757 28.9872 67.1014 29.1087 67.1532 29.1936C67.2048 29.2785 67.2757 29.3209 67.3658 29.3209Z" fill="white"/>
<path fill-rule="evenodd" clip-rule="evenodd" d="M68.3981 29.3205C68.5685 29.3205 68.7024 29.2526 68.7997 29.1165C68.8969 28.9805 68.9456 28.7898 68.9456 28.545V28.3071L68.6718 28.3241C68.4541 28.3353 68.2972 28.3845 68.2009 28.4718C68.1048 28.5589 68.0569 28.6945 68.0569 28.8787C68.0569 29.0229 68.0867 29.1325 68.1466 29.2076C68.2065 29.283 68.2903 29.3205 68.3981 29.3205ZM69.0162 29.602L68.9619 29.2273H68.9487C68.8586 29.3921 68.7686 29.5039 68.6789 29.5623C68.5892 29.6207 68.4775 29.6499 68.3434 29.6499C68.1642 29.6499 68.0239 29.5828 67.9223 29.4482C67.8204 29.314 67.7695 29.1225 67.7695 28.8744C67.7695 28.3428 68.0613 28.0644 68.6452 28.0387L68.9519 28.0243V27.861C68.9519 27.6544 68.9216 27.5021 68.8605 27.4035C68.7994 27.3052 68.7017 27.256 68.5677 27.256C68.4169 27.256 68.2466 27.3231 68.0567 27.4577L67.9724 27.1524C68.0613 27.0823 68.1589 27.0271 68.2652 26.9869C68.3712 26.947 68.4775 26.9268 68.5844 26.9268C68.7997 26.9268 68.9593 26.9964 69.0634 27.1359C69.167 27.2752 69.219 27.4983 69.219 27.8059V29.602H69.0162Z" fill="white"/>
<path fill-rule="evenodd" clip-rule="evenodd" d="M70.5215 27.2615C70.3345 27.2615 70.2001 27.3394 70.1175 27.4954C70.0352 27.6516 69.9938 27.9144 69.9938 28.2843C69.9938 28.6543 70.0361 28.9188 70.1207 29.0778C70.2055 29.2373 70.3411 29.3167 70.5281 29.3167C70.6962 29.3167 70.8216 29.2276 70.904 29.0491C70.9863 28.8707 71.0276 28.6141 71.0276 28.2796C71.0276 27.9369 70.9863 27.6818 70.904 27.5136C70.8216 27.3456 70.694 27.2615 70.5215 27.2615ZM70.5597 26.9275C70.7973 26.9275 70.9815 27.0458 71.113 27.282C71.2443 27.5178 71.3098 27.8521 71.3098 28.2844C71.3098 28.7167 71.2438 29.0524 71.1113 29.2918C70.9789 29.5311 70.7948 29.6507 70.5597 29.6507C70.4422 29.6507 70.3346 29.619 70.2374 29.5558C70.1398 29.4924 70.0582 29.3953 69.9925 29.2641H69.9727L69.9148 29.6028H69.7188V25.8662H69.9925V26.774C69.9925 26.9772 69.9878 27.1599 69.9793 27.3214H69.9925C70.1198 27.0588 70.3092 26.9275 70.5597 26.9275Z" fill="white"/>
<path fill-rule="evenodd" clip-rule="evenodd" d="M71.7227 29.6023H71.9964V25.8657H71.7227V29.6023Z" fill="white"/>
<path fill-rule="evenodd" clip-rule="evenodd" d="M73.1958 27.2558C73.0507 27.2558 72.9351 27.3247 72.8488 27.4622C72.7625 27.6 72.7117 27.7907 72.6963 28.0338H73.6411C73.6411 27.7824 73.6025 27.59 73.5258 27.4564C73.4485 27.3227 73.3388 27.2558 73.1958 27.2558ZM73.2702 29.6503C73.0031 29.6503 72.7922 29.5317 72.6377 29.2948C72.4832 29.058 72.4062 28.7287 72.4062 28.3079C72.4062 27.8838 72.4779 27.5466 72.6211 27.297C72.7645 27.0472 72.9571 26.9224 73.1993 26.9224C73.4256 26.9224 73.605 27.0309 73.7367 27.2478C73.8687 27.4648 73.9345 27.7505 73.9345 28.106V28.3583H72.6897C72.6951 28.6671 72.7486 28.902 72.8506 29.0617C72.9522 29.222 73.0954 29.3018 73.28 29.3018C73.4748 29.3018 73.6671 29.2427 73.8572 29.1241V29.4795C73.7605 29.5404 73.669 29.5841 73.5825 29.6106C73.4963 29.637 73.3921 29.6503 73.2702 29.6503Z" fill="white"/>
<path fill-rule="evenodd" clip-rule="evenodd" d="M55.8361 33.5678C55.8361 33.8127 55.7732 34.0016 55.6479 34.1347C55.5227 34.2675 55.3468 34.3336 55.1202 34.3336C54.8807 34.3336 54.6937 34.2787 54.5596 34.1681V33.7982C54.6466 33.8624 54.7397 33.9128 54.8392 33.9495C54.9386 33.9864 55.0347 34.0049 55.1271 34.0049C55.27 34.0049 55.3798 33.9714 55.4568 33.9053C55.5337 33.8387 55.5721 33.7376 55.5721 33.6015C55.5721 33.4989 55.5418 33.4113 55.4807 33.3385C55.4196 33.2656 55.3008 33.1795 55.1236 33.0804C54.9553 32.9893 54.8357 32.9094 54.7649 32.8415C54.694 32.7734 54.6412 32.6962 54.6067 32.6096C54.572 32.523 54.5547 32.4199 54.5547 32.2999C54.5547 32.0854 54.6146 31.9162 54.7343 31.7922C54.8541 31.6681 55.0186 31.606 55.2275 31.606C55.4223 31.606 55.6122 31.6636 55.7982 31.7789L55.7007 32.1029C55.5193 31.9941 55.3551 31.9399 55.2077 31.9399C55.0779 31.9399 54.9802 31.9694 54.9144 32.0285C54.8482 32.0877 54.8152 32.1693 54.8152 32.2734C54.8152 32.344 54.8277 32.4039 54.8524 32.4536C54.877 32.503 54.9169 32.5505 54.9719 32.5954C55.0269 32.6401 55.1324 32.705 55.2886 32.7898C55.5029 32.9034 55.6476 33.018 55.7231 33.1333C55.7984 33.2486 55.8361 33.3934 55.8361 33.5678Z" fill="white"/>
<path fill-rule="evenodd" clip-rule="evenodd" d="M56.5037 31.6538V33.3613C56.5037 33.5758 56.5372 33.7357 56.6042 33.8416C56.6714 33.9472 56.7762 33.9998 56.9192 33.9998C57.1083 33.9998 57.2464 33.9247 57.3339 33.7742C57.4214 33.6239 57.4652 33.3778 57.4652 33.0371V31.6538H57.7389V34.2856H57.5128L57.4732 33.9327H57.4583C57.4023 34.0622 57.3244 34.1616 57.2252 34.2305C57.1257 34.2994 57.0121 34.3335 56.8847 34.3335C56.6648 34.3335 56.5 34.2577 56.3908 34.1054C56.2813 33.9537 56.2266 33.71 56.2266 33.3756V31.6538H56.5037Z" fill="white"/>
<path fill-rule="evenodd" clip-rule="evenodd" d="M59.4493 33.5678C59.4493 33.8127 59.3865 34.0016 59.2612 34.1347C59.136 34.2675 58.9601 34.3336 58.7335 34.3336C58.494 34.3336 58.307 34.2787 58.1729 34.1681V33.7982C58.2599 33.8624 58.353 33.9128 58.4524 33.9495C58.5519 33.9864 58.648 34.0049 58.7403 34.0049C58.8833 34.0049 58.9931 33.9714 59.07 33.9053C59.147 33.8387 59.1854 33.7376 59.1854 33.6015C59.1854 33.4989 59.1551 33.4113 59.094 33.3385C59.0329 33.2656 58.9141 33.1795 58.7369 33.0804C58.5685 32.9893 58.449 32.9094 58.3781 32.8415C58.3073 32.7734 58.2545 32.6962 58.22 32.6096C58.1853 32.523 58.168 32.4199 58.168 32.2999C58.168 32.0854 58.2278 31.9162 58.3476 31.7922C58.4674 31.6681 58.6318 31.606 58.8408 31.606C59.0356 31.606 59.2255 31.6636 59.4115 31.7789L59.3139 32.1029C59.1326 31.9941 58.9684 31.9399 58.821 31.9399C58.6912 31.9399 58.5935 31.9694 58.5277 32.0285C58.4615 32.0877 58.4285 32.1693 58.4285 32.2734C58.4285 32.344 58.441 32.4039 58.4656 32.4536C58.4903 32.503 58.5302 32.5505 58.5852 32.5954C58.6401 32.6401 58.7457 32.705 58.9019 32.7898C59.1162 32.9034 59.2609 33.018 59.3364 33.1333C59.4117 33.2486 59.4493 33.3934 59.4493 33.5678Z" fill="white"/>
<path fill-rule="evenodd" clip-rule="evenodd" d="M60.6659 31.9443C60.4812 31.9443 60.3475 32.0189 60.2651 32.1677C60.1825 32.3164 60.1405 32.5533 60.1383 32.8783V32.9674C60.1383 33.3371 60.1806 33.6017 60.2651 33.7609C60.3499 33.9201 60.4856 33.9998 60.6725 33.9998C60.8287 33.9998 60.9509 33.9077 61.0394 33.7237C61.1281 33.5398 61.1721 33.2859 61.1721 32.9624C61.1721 32.6344 61.1281 32.3826 61.0394 32.2074C60.9509 32.0321 60.8263 31.9443 60.6659 31.9443ZM60.7042 34.3336C60.5867 34.3336 60.4792 34.3022 60.3819 34.2388C60.2844 34.1756 60.2027 34.0785 60.137 33.947H60.1172C60.1302 34.101 60.137 34.2465 60.137 34.384V35.4671H59.8633V31.6539H60.0859L60.1238 32.0141H60.137C60.2074 31.87 60.2893 31.766 60.3826 31.7018C60.4762 31.6379 60.5833 31.606 60.7042 31.606C60.944 31.606 61.1288 31.7253 61.2593 31.9636C61.3893 32.2023 61.4543 32.5367 61.4543 32.9675C61.4543 33.3996 61.3883 33.7356 61.2558 33.9749C61.1234 34.2141 60.9394 34.3336 60.7042 34.3336Z" fill="white"/>
<path fill-rule="evenodd" clip-rule="evenodd" d="M62.5864 31.939C62.4412 31.939 62.3256 32.0077 62.2393 32.1454C62.153 32.2832 62.1022 32.4737 62.0868 32.7168H63.0317C63.0317 32.4654 62.993 32.2732 62.9163 32.1394C62.8391 32.0059 62.7293 31.939 62.5864 31.939ZM62.6608 34.3334C62.3937 34.3334 62.1828 34.2148 62.0283 33.9779C61.8739 33.7411 61.7969 33.4121 61.7969 32.991C61.7969 32.5669 61.8685 32.23 62.0117 31.9801C62.1552 31.7305 62.3477 31.6055 62.5899 31.6055C62.8162 31.6055 62.9956 31.714 63.1274 31.931C63.2593 32.1479 63.3251 32.4339 63.3251 32.7893V33.0414H62.0804C62.0858 33.3504 62.1393 33.5851 62.2412 33.7451C62.3429 33.9053 62.4861 33.9852 62.6706 33.9852C62.8654 33.9852 63.0577 33.926 63.2478 33.8075V34.1629C63.1511 34.2238 63.0597 34.2672 62.9731 34.2939C62.8869 34.3202 62.7828 34.3334 62.6608 34.3334Z" fill="white"/>
<path fill-rule="evenodd" clip-rule="evenodd" d="M64.9947 34.2857V32.5834C64.9947 32.3687 64.961 32.2087 64.894 32.1029C64.8268 31.9973 64.7222 31.9444 64.5792 31.9444C64.3898 31.9444 64.2515 32.019 64.1638 32.1678C64.0755 32.3166 64.0318 32.5624 64.0318 32.9051V34.2857H63.7578V31.6539H63.9807L64.0249 32.0141H64.0384C64.0941 31.8845 64.173 31.7842 64.2742 31.7128C64.3752 31.6414 64.4878 31.606 64.6122 31.606C64.8297 31.606 64.9935 31.6823 65.1035 31.8353C65.2134 31.9881 65.2684 32.2325 65.2684 32.5689V34.2857H64.9947Z" fill="white"/>
<path fill-rule="evenodd" clip-rule="evenodd" d="M66.9611 33.5678C66.9611 33.8127 66.8982 34.0016 66.7729 34.1347C66.6477 34.2675 66.4718 34.3336 66.2452 34.3336C66.0057 34.3336 65.8187 34.2787 65.6846 34.1681V33.7982C65.7716 33.8624 65.8647 33.9128 65.9642 33.9495C66.0636 33.9864 66.1597 34.0049 66.2521 34.0049C66.395 34.0049 66.5048 33.9714 66.5818 33.9053C66.6587 33.8387 66.6971 33.7376 66.6971 33.6015C66.6971 33.4989 66.6668 33.4113 66.6057 33.3385C66.5446 33.2656 66.4258 33.1795 66.2486 33.0804C66.0803 32.9893 65.9607 32.9094 65.8899 32.8415C65.819 32.7734 65.7662 32.6962 65.7317 32.6096C65.697 32.523 65.6797 32.4199 65.6797 32.2999C65.6797 32.0854 65.7396 31.9162 65.8593 31.7922C65.9791 31.6681 66.1436 31.606 66.3525 31.606C66.5473 31.606 66.7372 31.6636 66.9232 31.7789L66.8257 32.1029C66.6443 31.9941 66.4801 31.9399 66.3327 31.9399C66.2029 31.9399 66.1052 31.9694 66.0394 32.0285C65.9732 32.0877 65.9402 32.1693 65.9402 32.2734C65.9402 32.344 65.9527 32.4039 65.9774 32.4536C66.002 32.503 66.0419 32.5505 66.0969 32.5954C66.1519 32.6401 66.2574 32.705 66.4136 32.7898C66.6279 32.9034 66.7726 33.018 66.8481 33.1333C66.9234 33.2486 66.9611 33.3934 66.9611 33.5678Z" fill="white"/>
<path fill-rule="evenodd" clip-rule="evenodd" d="M67.3752 34.2856H67.6489V31.6538H67.3752V34.2856ZM67.3516 30.9403C67.3516 30.849 67.3672 30.7824 67.398 30.7399C67.4288 30.6975 67.4672 30.6763 67.5131 30.6763C67.5573 30.6763 67.595 30.6977 67.627 30.7412C67.659 30.7843 67.6747 30.8507 67.6747 30.9403C67.6747 31.03 67.659 31.0966 67.627 31.1408C67.595 31.185 67.5573 31.2069 67.5131 31.2069C67.4672 31.2069 67.4288 31.185 67.398 31.1408C67.3672 31.0966 67.3516 31.03 67.3516 30.9403Z" fill="white"/>
<path fill-rule="evenodd" clip-rule="evenodd" d="M68.3759 32.967C68.3759 33.3032 68.4218 33.5593 68.5142 33.7352C68.6066 33.9115 68.7425 33.9996 68.9216 33.9996C69.101 33.9996 69.2369 33.9117 69.3298 33.7365C69.4226 33.5613 69.4693 33.3049 69.4693 32.967C69.4693 32.6323 69.4226 32.3784 69.3298 32.2044C69.2369 32.031 69.0998 31.9438 68.9184 31.9438C68.739 31.9438 68.6041 32.0297 68.5127 32.2009C68.4216 32.3722 68.3759 32.6278 68.3759 32.967ZM69.7542 32.9671C69.7542 33.3961 69.6799 33.7311 69.5315 33.972C69.3832 34.2128 69.1779 34.3334 68.9164 34.3334C68.7548 34.3334 68.6114 34.2782 68.486 34.1679C68.3609 34.0571 68.2638 33.8986 68.1959 33.6922C68.1277 33.4857 68.0938 33.2439 68.0938 32.9671C68.0938 32.538 68.1673 32.2038 68.3144 31.9644C68.4621 31.725 68.6664 31.6055 68.9281 31.6055C69.1808 31.6055 69.3817 31.728 69.5308 31.9729C69.6796 32.2177 69.7542 32.5492 69.7542 32.9671Z" fill="white"/>
<path fill-rule="evenodd" clip-rule="evenodd" d="M71.44 34.2857V32.5834C71.44 32.3687 71.4063 32.2087 71.3393 32.1029C71.2721 31.9973 71.1675 31.9444 71.0245 31.9444C70.8351 31.9444 70.6968 32.019 70.6091 32.1678C70.5208 32.3166 70.4771 32.5624 70.4771 32.9051V34.2857H70.2031V31.6539H70.426L70.4702 32.0141H70.4837C70.5394 31.8845 70.6184 31.7842 70.7195 31.7128C70.8205 31.6414 70.9331 31.606 71.0575 31.606C71.275 31.606 71.4388 31.6823 71.5488 31.8353C71.6587 31.9881 71.7137 32.2325 71.7137 32.5689V34.2857H71.44Z" fill="white"/>
<path fill-rule="evenodd" clip-rule="evenodd" d="M75.2076 0.956479C75.7467 1.43272 76.2727 1.92918 76.8289 2.38346C77.9201 3.32247 79.0615 4.19558 80.2575 4.97659C80.5298 5.1533 80.8064 5.32378 81.0863 5.48777C81.6044 4.74445 82.0947 3.98441 82.5402 3.20191C83.1219 2.17554 83.6312 1.10275 83.9794 0C82.1795 0.70438 79.3738 1.24103 75.1484 0.901067C75.1682 0.919538 75.1875 0.938258 75.2076 0.956479Z" fill="white"/>
<path fill-rule="evenodd" clip-rule="evenodd" d="M83.2399 3.64077C82.7582 4.39931 82.2403 5.1269 81.6992 5.83303C82.4615 6.24213 83.2516 6.59482 84.0733 6.8624C84.7505 7.07755 85.4446 7.23955 86.1487 7.3636C86.3039 7.38931 86.4593 7.41302 86.6152 7.43623C85.7413 5.59067 85.0452 2.46863 84.7757 0.700195C84.3582 1.74054 83.8223 2.71524 83.2399 3.64077Z" fill="white"/>
<path fill-rule="evenodd" clip-rule="evenodd" d="M86.111 7.63458C85.3922 7.54722 84.6747 7.42042 83.9674 7.23646C83.0719 6.99709 82.2048 6.66013 81.367 6.25977C80.9865 6.74175 80.5962 7.21425 80.1991 7.67951C78.3236 9.87477 76.286 11.8941 74.2773 13.9368C78.4223 11.1028 83.984 8.29977 86.6653 7.69049C86.4805 7.67327 86.2958 7.65505 86.111 7.63458Z" fill="white"/>
<path fill-rule="evenodd" clip-rule="evenodd" d="M74.2617 13.6924C76.1377 11.5933 78.0347 9.51533 79.7518 7.2976C80.0945 6.85481 80.4298 6.40652 80.7563 5.95274C80.4831 5.80997 80.2123 5.66245 79.9456 5.5087C78.6794 4.77437 77.4689 3.94543 76.3134 3.0526C75.723 2.61954 75.1667 2.14754 74.5941 1.69302C74.5826 1.68353 74.5714 1.67355 74.5599 1.66406C75.1024 4.92937 76.0421 10.2237 74.2617 13.6924Z" fill="white"/>
</g>
</svg>