<svg xmlns="http://www.w3.org/2000/svg" width="192" height="72" viewBox="0 0 192 72" fill="none">
  <path fill-rule="evenodd" clip-rule="evenodd" d="M101.199 60.7352C100.8 64.3787 97.8018 67.1887 94.4636 67.1887C91.1267 67.1887 88.7385 64.3787 89.1375 60.7352C89.5235 57.1929 92.5137 54.4805 95.8507 54.4805C99.1877 54.4805 101.584 57.1929 101.199 60.7352ZM95.9378 53.6689C92.1329 53.6689 88.6926 56.7572 88.2579 60.7355C87.8138 64.8138 90.5677 68.0008 94.375 68.0008C98.1798 68.0008 101.631 64.8138 102.076 60.7355C102.511 56.7572 99.7438 53.6689 95.9378 53.6689Z" fill="white"/>
  <path fill-rule="evenodd" clip-rule="evenodd" d="M80.4209 54.6988H89.5257L89.6112 53.9062H79.668L78.1562 67.7623H78.9958L79.7036 61.2691H86.4619L86.5462 60.479H79.7903L80.4209 54.6988Z" fill="white"/>
  <path fill-rule="evenodd" clip-rule="evenodd" d="M128.601 60.8369C128.166 64.8152 125.492 66.9724 121.863 66.9724H118.544L119.883 54.7002H123.201C126.832 54.7002 129.032 56.8779 128.601 60.8369ZM123.425 53.9072H119.13L117.617 67.7633H121.911C125.97 67.7633 128.997 65.2496 129.48 60.8365C129.959 56.4426 127.483 53.9072 123.425 53.9072Z" fill="white"/>
  <path fill-rule="evenodd" clip-rule="evenodd" d="M116.174 60.7352C115.778 64.3787 112.777 67.1887 109.44 67.1887C106.104 67.1887 103.716 64.3787 104.115 60.7352C104.501 57.1929 107.49 54.4805 110.826 54.4805C114.165 54.4805 116.561 57.1929 116.174 60.7352ZM110.915 53.6689C107.11 53.6689 103.671 56.7572 103.235 60.7355C102.789 64.8138 105.544 68.0008 109.352 68.0008C113.157 68.0008 116.608 64.8138 117.053 60.7355C117.486 56.7572 114.721 53.6689 110.915 53.6689Z" fill="white"/>
  <path fill-rule="evenodd" clip-rule="evenodd" d="M135.554 53.668C133.075 53.668 131.264 55.412 131.063 57.2524C130.591 61.5861 137.697 60.4972 137.266 64.4358C137.084 66.0992 135.621 67.1687 133.924 67.1687C131.66 67.1687 130.442 65.6246 130.442 65.6246L129.805 66.2774C129.805 66.2774 131.1 67.9998 133.794 67.9998C136.233 67.9998 137.93 66.3955 138.148 64.3973C138.654 59.7649 131.544 60.8935 131.945 57.232C132.091 55.8866 133.452 54.499 135.481 54.499C137.298 54.499 138.337 55.689 138.337 55.689L138.887 54.9543C138.887 54.9543 137.778 53.668 135.554 53.668Z" fill="white"/>
  <path fill-rule="evenodd" clip-rule="evenodd" d="M47.5672 10.7725C46.8 10.7725 46.2015 11.0001 45.7669 11.4554C45.3358 11.9107 45.1304 12.5382 45.1589 13.3331C45.179 13.8956 45.3572 14.3413 45.6944 14.6701C46.0305 15.0013 46.4948 15.1651 47.0898 15.1651C47.8356 15.1651 48.4293 14.9327 48.8723 14.4677C49.3152 14.0028 49.5207 13.3717 49.4922 12.5767C49.472 12.0131 49.2962 11.5722 48.959 11.253C48.6217 10.9314 48.1574 10.7725 47.5672 10.7725Z" fill="white"/>
  <path fill-rule="evenodd" clip-rule="evenodd" d="M4.84088 21.0436C5.01545 19.4333 5.43703 17.9988 6.11036 16.7377C6.7837 15.4766 7.65298 14.4047 8.72295 13.523C9.79173 12.6389 11.0303 11.9657 12.4376 11.4995C13.8472 11.0346 15.3827 10.8022 17.0464 10.8022C18.633 10.8022 20.1708 10.9816 21.6564 11.3393C23.142 11.6983 24.4163 12.1018 25.4862 12.5474L26.6287 9.95903C25.4411 9.37487 24.0612 8.88105 22.4865 8.47394C20.913 8.06683 19.1436 7.86328 17.1747 7.86328C15.2033 7.86328 13.333 8.14994 11.5659 8.72206C9.79767 9.29418 8.22656 10.1313 6.84901 11.2382C5.47265 12.3439 4.33856 13.6965 3.44909 15.2972C2.55962 16.8979 1.99673 18.7263 1.76397 20.7811L0.112106 35.7368C-0.125402 37.7362 0.0147277 39.52 0.530119 41.093C1.04314 42.6624 1.8471 43.9921 2.93488 45.0774C4.02504 46.1638 5.34559 46.9937 6.89414 47.567C8.44506 48.1355 10.1492 48.4233 12.0029 48.4233C13.9932 48.4233 15.9171 48.2282 17.7791 47.8416C19.6376 47.4538 21.2752 46.9286 22.6848 46.2698L24.5611 29.4809H21.5496L19.8929 44.3499C18.8538 44.6811 17.7162 44.9521 16.4788 45.1641C15.2425 45.3785 13.9564 45.4845 12.6181 45.4845C11.0493 45.4845 9.64567 45.2616 8.40469 44.8148C7.1649 44.3691 6.13411 43.7199 5.31115 42.8672C4.48581 42.012 3.88967 40.9702 3.52272 39.7392C3.15339 38.5071 3.05601 37.0942 3.23058 35.5043L4.84088 21.0436Z" fill="white"/>
  <path fill-rule="evenodd" clip-rule="evenodd" d="M80.3516 47.8417H83.451L86.7049 18.8613H83.6054L80.3516 47.8417Z" fill="white"/>
  <path fill-rule="evenodd" clip-rule="evenodd" d="M41.7734 47.8417H44.8705L48.1244 18.8613H45.0261L41.7734 47.8417Z" fill="white"/>
  <path fill-rule="evenodd" clip-rule="evenodd" d="M42.1031 18.2793C41.2434 18.3383 40.3385 18.5419 39.3837 18.8912C38.4313 19.2405 37.4801 19.6716 36.5336 20.1847C35.5847 20.7003 34.6727 21.2808 33.7975 21.9312C32.9199 22.5804 32.1409 23.2453 31.4569 23.9246L31.7371 18.861H29.2136L25.9609 47.8415H29.0592L31.3892 26.8635C32.1456 26.1275 32.9686 25.4422 33.8557 24.8111C34.7416 24.1811 35.6453 23.6235 36.5645 23.1381C37.4836 22.6527 38.3933 22.2564 39.2911 21.9445C40.1876 21.6349 41.0189 21.4506 41.7813 21.3928L42.1031 18.2793Z" fill="white"/>
  <path fill-rule="evenodd" clip-rule="evenodd" d="M80.8809 18.8615H72.9351L73.4469 14.3304C73.6797 12.2732 74.3008 10.7327 75.3078 9.70284C76.3125 8.67664 77.6294 8.16114 79.2552 8.16114C79.9416 8.16114 80.622 8.2057 81.2966 8.29242C81.9675 8.38035 82.585 8.49236 83.1432 8.62726L83.8236 5.92205C83.3569 5.76668 82.7169 5.63057 81.901 5.51374C81.084 5.39811 80.2171 5.33789 79.2991 5.33789C78.1318 5.33789 77.0392 5.54265 76.0203 5.94975C75.0026 6.35807 74.0989 6.94102 73.3139 7.69501C72.529 8.45262 71.8853 9.36921 71.3889 10.4472C70.8902 11.5216 70.5612 12.72 70.3961 14.0389L69.8665 18.8615H58.541L59.0468 14.5255C59.2487 12.6249 59.8425 11.1699 60.8305 10.1617C61.8174 9.1524 63.1545 8.64894 64.8373 8.64894C65.4501 8.64894 66.0818 8.69712 66.735 8.79348C67.3893 8.89104 67.9201 8.99944 68.3251 9.11386L69.0317 6.40624C68.5875 6.25328 67.9902 6.11838 67.2409 6.00034C66.4903 5.88592 65.6947 5.8269 64.8527 5.8269C63.6854 5.8269 62.594 6.02564 61.5751 6.4219C60.5562 6.82058 59.6572 7.38185 58.8806 8.11055C58.1016 8.83684 57.4639 9.7197 56.9627 10.7567C56.4651 11.7962 56.1421 12.9452 55.9961 14.2063L55.4724 18.8615H50.5951L50.3125 21.4499H55.1909L52.0273 47.842H55.1256L58.2583 21.4499H69.5839L64.7399 62.4303H67.8085L72.6537 21.4499H80.6007L80.8809 18.8615Z" fill="white"/>
  <path fill-rule="evenodd" clip-rule="evenodd" d="M122.057 18.28C120.355 18.28 118.575 18.6558 116.718 19.4002C114.859 20.1481 113.027 21.1514 111.216 22.4125L113.07 5.82715H110.029L105.312 47.8422H108.412L110.943 25.2056C112.751 23.8856 114.536 22.8967 116.301 22.2367C118.067 21.5778 119.638 21.2478 121.014 21.2478C122.697 21.2478 123.895 21.7175 124.608 22.6594C125.319 23.6001 125.574 24.9913 125.372 26.8353L122.984 47.8422H126.084L128.504 26.1656C128.795 23.5857 128.386 21.626 127.277 20.2879C126.169 18.9497 124.428 18.28 122.057 18.28Z" fill="white"/>
  <path fill-rule="evenodd" clip-rule="evenodd" d="M86.1418 10.7725C85.3758 10.7725 84.7773 11.0001 84.3439 11.4554C83.9104 11.9107 83.7085 12.5382 83.737 13.3331C83.756 13.8956 83.933 14.3413 84.2714 14.6701C84.6087 15.0013 85.0718 15.1651 85.6668 15.1651C86.4114 15.1651 87.0063 14.9327 87.4481 14.4677C87.8922 14.0028 88.0977 13.3717 88.0703 12.5767C88.0502 12.0131 87.872 11.5722 87.536 11.253C87.1999 10.9314 86.7344 10.7725 86.1418 10.7725Z" fill="white"/>
  <path fill-rule="evenodd" clip-rule="evenodd" d="M98.3195 10.7725H95.6238L94.3875 18.8616H89.483L89.1719 21.45H94.0776L91.8973 40.9742C91.75 42.2738 91.7987 43.3952 92.0433 44.3334C92.2868 45.2753 92.6917 46.0486 93.257 46.6472C93.8247 47.2506 94.5336 47.6951 95.3851 47.9853C96.2377 48.2768 97.1973 48.4238 98.2696 48.4238C99.1306 48.4238 99.9702 48.3611 100.786 48.2347C101.605 48.107 102.299 47.9673 102.867 47.8119L102.829 45.1344C102.299 45.2512 101.681 45.3584 100.976 45.456C100.272 45.5523 99.6032 45.6005 98.9726 45.6005C98.304 45.6005 97.702 45.5138 97.1711 45.3392C96.6379 45.1645 96.1938 44.8827 95.8363 44.496C95.4777 44.107 95.2248 43.5939 95.0787 42.9531C94.9314 42.3136 94.9077 41.5271 95.011 40.5972L97.1462 21.45H104.864L105.173 18.8616H97.4003L98.3195 10.7725Z" fill="white"/>
  <path fill-rule="evenodd" clip-rule="evenodd" d="M183.898 8.45605L183.836 8.85955H185.465L184.901 12.7066H185.339L185.906 8.85955H187.397L187.457 8.45605H183.898ZM191.277 8.45605L189.448 11.5491L188.548 8.4946L188.536 8.45605H188.055L187.429 12.7066H187.861L188.36 9.33651L189.207 12.1875H189.518L191.196 9.35217L190.701 12.7066H191.133L191.758 8.45605H191.277Z" fill="white"/>
  <path fill-rule="evenodd" clip-rule="evenodd" d="M189.542 34.0099C188.048 21.5293 183.976 19.0289 174.849 21.6727C174.79 21.6895 174.731 21.7076 174.673 21.7293C174.636 21.7329 174.598 21.7389 174.554 21.751C168.106 23.6263 161.116 24.1021 153.941 23.0879C152.967 22.9494 152.181 23.9684 152.188 25.3981C152.194 26.8217 152.605 28.043 153.953 28.2225C158.195 28.8127 163.008 29.5366 170.709 28.5573C172.369 28.3863 173.283 28.944 172.867 30.2604C172.14 32.6392 159.463 35.1192 146.228 31.8298C145.225 31.5251 143.6 32.5802 143.62 34.0352C143.642 35.4854 144.302 36.4851 145.298 36.7681C155.475 39.6841 163.569 39.7455 172.667 36.9644C174.635 36.202 175.422 39.1036 173.308 40.096C169.774 42.4941 155.334 44.6392 145.21 41.9172C144.218 41.6522 142.583 41.5414 142.258 43.9262C142.277 45.3438 142.861 46.9349 144.373 47.2469C154.443 49.7823 163.921 48.962 172.934 45.9449C174.349 45.4366 175.419 48.3261 172.601 49.539C169.38 51.2613 155.836 54.5977 145.82 52.2502C144.344 52.0021 143.521 52.9114 143.542 54.3062C143.676 56.6501 146.038 57.1042 147.014 57.3137C156.98 59.4781 162.825 58.5483 171.755 55.3023C173.351 54.6025 174.093 55.3721 173.629 56.638C173.169 58.7025 165.271 63.0192 153.91 62.7735C153.419 66.352 156.518 67.9467 163.173 66.9313C180.447 64.1093 190.022 50.9855 189.542 34.0099Z" fill="white"/>
  <path fill-rule="evenodd" clip-rule="evenodd" d="M148.113 26.7741C147.984 26.2225 147.916 25.6419 147.923 25.0409C147.941 23.333 148.576 21.7816 149.66 20.7904C150.605 19.9244 151.792 19.551 153.005 19.7328C159.443 20.7193 165.893 20.3447 172.184 18.6211C172.258 18.6019 172.33 18.585 172.405 18.5693C172.431 18.5633 172.455 18.5537 172.481 18.5465C176.154 17.5444 180.288 16.7988 183.911 18.3622C178.333 10.5404 169.564 5.4504 159.648 5.33598C149.077 5.21313 139.684 10.7717 134 19.3522C135.049 20.2977 139.97 24.4278 148.113 26.7741Z" fill="white"/>
</svg>