<svg xmlns="http://www.w3.org/2000/svg" width="108" height="32" viewBox="0 0 108 32" fill="none">
  <g id="HiTide">
    <path id="Vector" d="M99.3619 30.941C94.9241 30.941 90.4863 27.2017 90.4863 20.1752C90.4863 13.6418 94.0201 9.53275 99.1565 9.53275C104.868 9.53275 107.416 14.4636 107.292 19.9698H96.0747C96.3212 25.1061 98.5812 27.5715 101.293 27.5715C103.06 27.5715 104.827 26.5032 106.388 24.3665L107.333 24.613C106.594 27.4893 103.759 30.941 99.3619 30.941ZM96.1157 18.1207H101.868C101.827 14.7923 100.964 11.3407 99.0743 11.3407C97.143 11.3407 96.239 14.9978 96.1157 18.1207Z" fill="white"/>
    <path id="Vector_2" d="M82.7763 30.5714C82.2421 29.8318 81.8312 28.9689 81.5847 28.106C80.3931 29.7496 78.6673 31.0234 76.4895 31.0234C72.668 31.0234 69.4219 27.5307 69.4219 20.5864C69.4219 13.4366 73.2433 9.6563 77.6811 9.6563C78.9549 9.6563 80.1876 9.98502 81.3382 10.6014V5.13633C81.3382 2.6298 80.1054 2.54762 78.7083 2.6298L78.5029 1.56145L86.8854 0.0821838V26.4213C86.8854 28.9689 88.1592 29.2976 89.5563 29.462V30.5714H82.7763ZM75.2156 19.025C75.2156 24.2846 76.2018 27.9416 78.7083 27.9416C79.6945 27.9416 80.5574 27.3253 81.3382 26.2158V17.3813C81.2971 13.7654 80.4342 11.5876 78.4618 11.5876C76.5306 11.5876 75.2156 13.9708 75.2156 19.025Z" fill="white"/>
    <path id="Vector_3" d="M58.0176 29.462C59.4557 29.2976 60.6885 28.8867 60.6885 26.4213V13.9297C60.6885 11.4643 59.4557 11.0123 58.0176 10.889V9.77956H66.0713V26.4213C66.0713 28.9689 67.3862 29.2976 68.7422 29.462V30.5714H58.0176V29.462ZM59.6201 3.45161C59.6201 1.56144 61.1405 0 62.9895 0C64.7975 0 66.3179 1.56144 66.3179 3.45161C66.3179 5.34178 64.7975 6.90322 62.9895 6.90322C61.1816 6.90322 59.6201 5.34178 59.6201 3.45161Z" fill="white"/>
    <path id="Vector_4" d="M27.3382 0C25.4891 0 23.9688 1.56144 23.9688 3.45161C23.9688 5.34178 25.5302 6.90322 27.3382 6.90322C29.1462 6.90322 30.6665 5.34178 30.6665 3.45161C30.6665 1.56144 29.1462 0 27.3382 0Z" fill="white"/>
    <path id="Vector_5" d="M39.0258 29.3795C40.5462 29.2151 42.0665 28.8864 42.0665 26.1333V2.87604H40.9571C36.6426 2.87604 35.2044 5.6702 34.6702 8.54654L33.4375 8.50545L33.7251 2.50622L33.8073 0.944778H56.1606L56.2428 2.50622L56.5304 8.50545L55.2977 8.54654C54.7635 5.6702 53.2843 2.87604 48.9698 2.87604H47.8192V26.1333C47.8192 28.8864 49.3807 29.2151 50.8599 29.3795V30.5711H39.0258V29.3795Z" fill="white"/>
    <path id="Vector_6" d="M30.5031 30.5715H24.5039V10.0262H30.5031V30.5715Z" fill="white"/>
    <path id="Vector_7" d="M14.6283 1.39688H20.9973V30.5712H14.6283V18.1618H6.36904V30.5712H0V1.39688H6.36904V13.2721H14.6283V1.39688Z" fill="white"/>
  </g>
</svg>