<?xml version="1.0" encoding="UTF-8"?>
<svg xmlns="http://www.w3.org/2000/svg" width="141" height="52" viewBox="0 0 141 52" fill="none">
  <path d="M48.104 42.4917L58.7816 10.0942H77.5736C76.8269 13.2179 75.6167 16.3088 74.7537 19.5082C77.2743 16.6593 79.6818 13.1716 82.3187 10.0942H100.571L87.9953 26.887L93.0189 42.4917H74.112C72.7765 39.1685 71.7886 35.7023 70.4522 32.3791C69.0491 35.6144 67.953 39.1409 66.7036 42.4917H48.104Z" fill="white"></path>
  <path d="M114.806 33.4116C118.574 36.1377 124.838 24.9367 120.122 21.3812C114.917 17.9104 110.561 31.5066 114.806 33.4116ZM95.2589 33.1339C86.6179 8.54578 133.607 0.230411 140.414 22.4224C143.531 44.58 104.77 50.8558 95.2589 33.1339Z" fill="white"></path>
  <path d="M54.8849 10.0942H36.7488L27.0601 42.4441H44.2844L54.8849 10.0942Z" fill="white"></path>
  <path d="M27.0449 42.4448L27.0575 42.4632L27.0632 42.4448H27.0449Z" fill="white"></path>
  <path d="M27.0585 19.8953C30.7717 19.9632 30.7722 14.2092 27.0582 14.2775C23.3443 14.2097 23.3447 19.9635 27.0585 19.8953ZM27.0585 19.4644C23.9282 19.5126 23.9273 14.66 27.0587 14.7088C30.1898 14.6604 30.189 19.5131 27.0585 19.4644ZM27.4737 17.1871C28.8569 17.2695 28.6907 15.3101 27.3501 15.5314L25.9945 15.5313V18.6064H26.431V17.1871H26.9568L27.8903 18.6064H28.4148L27.4737 17.1871ZM26.431 16.7552V15.9622C28.5911 15.7477 28.5952 16.9719 26.431 16.7552Z" fill="white"></path>
  <path d="M27.1167 42.4521L27.1298 42.4705L27.135 42.4521H27.1167Z" fill="white"></path>
  <path d="M10.4396 24.3672C9.68345 26.3244 5.09951 31.856 1.66408 26.8702C0.738241 33.3458 3.51445 45.6486 13.4071 50.8188C13.4071 50.8188 13.3376 50.8964 13.4071 50.8609C13.4766 50.8964 13.3678 50.4734 13.4071 50.4931C13.931 49.1666 8.97639 47.6292 13.4071 50.8609C13.4071 41.266 13.4785 48.248 13.4785 48.248C13.4031 41.5384 13.4314 29.5115 13.452 24.3672" fill="white"></path>
  <path d="M16.3216 24.3672C16.9449 25.6257 22.2421 31.679 25.1288 26.8875C26.0581 33.3835 23.2826 45.7932 13.3433 51.0025C13.3433 51.0025 13.4132 51.081 13.3433 51.045C13.2737 51.081 13.383 50.6548 13.3433 50.6744C12.7831 49.4396 17.7886 47.8137 13.3433 51.045C13.3137 34.54 13.3423 36.0329 13.2983 24.3672" fill="white"></path>
  <path d="M13.3105 25.8228C13.3105 22.7799 13.3744 9.88197 13.3105 0.962891C13.3448 0.967835 12.6869 0.968838 12.7175 0.963347V1.00774C11.7183 1.14935 9.71696 1.74661 9.01708 4.25667C6.0818 4.53943 1.35875 8.84479 7.39078 14.7628C7.39078 14.7628 6.79209 19.0385 9.92457 23.2847" fill="white"></path>
  <path d="M13.3267 25.9707C13.3267 22.9251 13.2629 10.0159 13.3267 1.08887C13.2925 1.09394 13.9511 1.0947 13.9202 1.08933V1.13373C14.9204 1.27534 16.9236 1.87352 17.6239 4.38497C20.5623 4.66835 25.2886 8.97776 19.2517 14.9009C19.2517 14.9009 19.8508 19.1803 16.7155 23.4303" fill="white"></path>
  <path d="M12.3453 50.621L13.3058 51.2071C13.3058 51.2071 14.2455 50.6458 14.4739 50.4977M16.3513 23.6862C18.4174 27.6928 22.362 30.7776 25.551 26.6183C26.5295 33.9891 22.2682 47.3256 13.2055 51.2276M10.1591 23.8343C8.119 27.8385 4.20412 30.6919 1.07146 26.6183C0.0930155 33.9892 4.35484 47.3256 13.4174 51.2276M25.2924 27.2398C25.2924 27.2398 19.3111 36.6538 13.1781 30.1775M1.26534 27.2398C1.26534 27.2398 7.24657 36.6538 13.3796 30.1775M13.2737 30.7079V17.6207M13.2737 14.0512V5.21807M17.184 4.6096C10.3023 3.33572 1.92783 19.4604 13.6567 26.3659M9.37696 4.60913C16.2583 3.33558 24.633 19.4598 12.9043 26.3654M9.37696 4.60913C10.3185 1.23218 13.3413 1.35555 13.3413 1.35555M9.37696 4.60913C4.13091 5.2639 3.64308 10.9795 7.85802 14.9564M17.6191 21.3818L13.2325 22.8712M18.5143 18.7544L13.2325 20.6864M18.9035 15.9443L13.1639 17.9043M18.7096 15.6462L13.2391 13.725M18.2802 12.6744L13.329 11.0486M16.9589 9.44138L13.329 8.16415M8.88705 21.3818L13.2737 22.8712M7.99137 18.7544L13.2737 20.6864M7.60218 15.9443L13.3413 17.9043M7.79559 15.6462L13.2661 13.725M8.22499 12.6744L13.1772 11.0486M9.54673 9.44138L13.1772 8.16415M13.1824 1.35555C13.1824 1.35555 16.2056 1.23218 17.1471 4.60914C22.393 5.26418 22.8812 10.9795 18.6656 14.9564" stroke="white" stroke-width="0.931611"></path>
</svg>
