<svg xmlns="http://www.w3.org/2000/svg" width="115" height="40" viewBox="0 0 115 40" fill="none">
<path d="M35.3841 28.1265C35.3841 28.3004 35.1227 28.5586 34.9511 28.5586H33.3881C33.2138 28.5586 32.9551 28.2978 32.9551 28.1265V0.476943C32.9551 0.30303 33.2165 0 33.3881 0H34.9511C35.1254 0 35.3841 0.30303 35.3841 0.476943V28.1265Z" fill="white"/>
<path d="M41.8928 28.1266C41.8928 28.3006 41.6314 28.5588 41.4598 28.5588H39.8967C39.7225 28.5588 39.4637 28.3006 39.4637 28.1266V11.294C39.4637 11.1201 39.7251 10.817 39.8967 10.817H41.4598C41.634 10.817 41.8928 11.1201 41.8928 11.294V28.1266ZM40.6783 2.25049C41.5891 2.25049 42.2413 3.07262 42.2413 3.98171C42.2413 4.8908 41.5918 5.71294 40.6783 5.71294C39.7647 5.71294 39.1152 4.93297 39.1152 3.98171C39.1152 3.03046 39.7647 2.25049 40.6783 2.25049Z" fill="white"/>
<path d="M54.6049 26.8301C57.5118 26.8301 59.7244 25.4888 61.3745 23.5837V17.1358C60.2471 14.4085 57.9026 12.5481 54.7792 12.5481C50.9614 12.5481 47.9674 15.3597 47.9674 19.6891C47.9674 24.0185 50.8743 26.8301 54.6049 26.8301ZM61.3745 26.0501H61.2451C59.727 27.6522 57.4273 28.9935 54.3911 28.9935C49.8789 28.9935 45.541 25.7919 45.541 19.6891C45.541 14.3242 49.3588 10.3848 54.6102 10.3848C57.8207 10.3848 60.1626 11.813 61.2478 13.4124H61.3771L61.6385 11.4651C61.7256 10.9012 61.9421 10.8169 62.2035 10.8169H63.3758C63.55 10.8169 63.8088 11.1199 63.8088 11.2939V39.5231C63.8088 39.697 63.5923 40 63.3758 40H61.8128C61.6385 40 61.3798 39.697 61.3798 39.5231V26.0501H61.3745Z" fill="white"/>
<path d="M82.4177 25.2701C81.0738 27.1305 78.5577 28.9908 75.0409 28.9908C70.138 28.9908 67.6641 25.7892 67.6641 21.2886V11.2938C67.6641 11.1199 67.9254 10.8169 68.0971 10.8169H69.6601C69.8343 10.8169 70.0931 11.1199 70.0931 11.2938V21.2912C70.0931 24.7089 71.8726 26.8301 75.1702 26.8301C78.4679 26.8301 81.3748 24.6667 82.5471 21.8973V11.2938C82.5471 11.1199 82.8084 10.8169 82.9801 10.8169H84.5431C84.7173 10.8169 84.9761 11.1199 84.9761 11.2938V28.1265C84.9761 28.3004 84.7147 28.5587 84.5431 28.5587H83.3708C83.1966 28.5587 82.9378 28.3426 82.8929 27.9526L82.5444 25.2701H82.415H82.4177Z" fill="white"/>
<path d="M91.4846 28.1266C91.4846 28.3006 91.2232 28.5588 91.0516 28.5588H89.4885C89.3143 28.5588 89.0555 28.3006 89.0555 28.1266V11.294C89.0555 11.1201 89.3169 10.817 89.4885 10.817H91.0516C91.2258 10.817 91.4846 11.1201 91.4846 11.294V28.1266ZM90.27 2.25049C91.1809 2.25049 91.8331 3.07262 91.8331 3.98171C91.8331 4.8908 91.1836 5.71294 90.27 5.71294C89.3565 5.71294 88.707 4.93297 88.707 3.98171C88.707 3.03046 89.3565 2.25049 90.27 2.25049Z" fill="white"/>
<path d="M104.196 26.83C107.103 26.83 109.403 25.4018 110.966 23.4124V17.1383C109.839 14.4111 107.322 12.5507 104.196 12.5507C100.508 12.5507 97.5589 15.3623 97.5589 19.6917C97.5589 24.0211 100.466 26.8327 104.196 26.8327M110.879 26.0105C109.448 27.6548 107.019 28.996 103.98 28.996C99.4678 28.996 95.1299 25.7945 95.1299 19.6917C95.1299 14.3267 98.9477 10.3874 104.199 10.3874C107.539 10.3874 109.709 11.8577 110.882 13.502H110.969V0.476943C110.969 0.30303 111.23 0 111.402 0H112.965C113.139 0 113.398 0.30303 113.398 0.476943V28.1265C113.398 28.3004 113.181 28.5586 112.965 28.5586H111.792C111.576 28.5586 111.402 28.4295 111.315 27.9947L110.969 26.0053H110.882L110.879 26.0105Z" fill="white"/>
<path d="M68.599 32.3662H69.3911C69.4729 32.3662 69.5389 32.4321 69.5389 32.5138V39.6258C69.5389 39.7074 69.4729 39.7733 69.3911 39.7733H68.599C68.5172 39.7733 68.4512 39.7074 68.4512 39.6258V32.5138C68.4512 32.4321 68.5172 32.3662 68.599 32.3662Z" fill="white"/>
<path d="M72.7724 34.6877C72.4873 34.3926 72.3025 34.0948 72.3025 34.0948H72.2655V39.6258C72.2655 39.6995 72.1916 39.7733 72.1177 39.7733H71.3256C71.2517 39.7733 71.1777 39.6995 71.1777 39.6258V32.5138C71.1777 32.44 71.2517 32.3662 71.3256 32.3662H71.9196L76.7856 37.3306C77.1077 37.6521 77.3427 38.021 77.3427 38.021H77.3928V32.5138C77.3928 32.44 77.4668 32.3662 77.5407 32.3662H78.3328C78.4067 32.3662 78.4806 32.44 78.4806 32.5138V39.6258C78.4806 39.6995 78.4067 39.7733 78.3328 39.7733H77.7493L72.7724 34.6851V34.6877Z" fill="white"/>
<path d="M80.5851 37.2807C80.7224 37.2807 80.7594 37.3413 80.7594 37.4546C80.7594 38.369 81.4036 38.9618 83.0881 38.9618C84.6247 38.9618 85.1685 38.3189 85.1685 37.5416C85.1685 37.0962 84.9098 36.6272 83.9065 36.5534L81.8392 36.4059C80.3422 36.282 79.6716 35.6153 79.6716 34.5798C79.6716 33.4572 80.6485 32.2451 82.8161 32.2451C85.1184 32.2451 85.9474 33.2939 85.9474 34.5666C85.9474 34.6272 85.8973 34.6904 85.76 34.6904H85.0286C84.9045 34.6904 84.8544 34.6536 84.8438 34.4796C84.7831 33.8367 84.263 33.1832 82.8135 33.1832C81.5382 33.1832 80.7594 33.7893 80.7594 34.5771C80.7594 35.0225 81.0577 35.4045 81.9343 35.4651L83.9646 35.6127C85.6596 35.7497 86.2537 36.5771 86.2537 37.5389C86.2537 38.5007 85.4115 39.8973 83.0854 39.8973C80.7594 39.8973 79.6689 38.8354 79.6689 37.5389V37.4151C79.6689 37.3281 79.7059 37.2781 79.8168 37.2781H80.5851V37.2807Z" fill="white"/>
<path d="M87.5922 32.3662H88.3843C88.4661 32.3662 88.5321 32.4321 88.5321 32.5138V39.6258C88.5321 39.7074 88.4661 39.7733 88.3843 39.7733H87.5922C87.5103 39.7733 87.4443 39.7074 87.4443 39.6258V32.5138C87.4443 32.4321 87.5103 32.3662 87.5922 32.3662Z" fill="white"/>
<path d="M97.3846 36.5637C97.3846 38.4029 96.1595 39.897 93.6091 39.897C91.4045 39.897 89.7227 38.4662 89.7227 36.0683C89.7227 33.6704 91.4071 32.2422 93.6091 32.2422C96.0856 32.2422 97.0995 33.7863 97.1364 34.9721C97.1364 35.0459 97.0995 35.0828 96.9622 35.0828H96.1833C96.1226 35.0828 96.0592 35.0828 96.046 34.9721C95.9457 34.1579 95.3041 33.1829 93.6064 33.1829C92.0091 33.1829 90.8078 34.2448 90.8078 36.0709C90.8078 37.897 92.0091 38.9589 93.6064 38.9589C95.3648 38.9589 96.2308 37.9971 96.2308 37.0564H93.0626C92.9886 37.0564 92.8909 36.9589 92.8909 36.8851V36.2923C92.8909 36.2185 92.9886 36.121 93.0626 36.121H97.3846V36.5663V36.5637Z" fill="white"/>
<path d="M105.878 39.6258C105.878 39.6995 105.804 39.7733 105.731 39.7733H104.938C104.865 39.7733 104.791 39.6995 104.791 39.6258V36.7615H99.6659V39.6258C99.6659 39.6995 99.592 39.7733 99.518 39.7733H98.726C98.6521 39.7733 98.5781 39.6995 98.5781 39.6258V32.5138C98.5781 32.44 98.6521 32.3662 98.726 32.3662H99.518C99.592 32.3662 99.6659 32.44 99.6659 32.5138V35.8234H104.791V32.5138C104.791 32.44 104.865 32.3662 104.938 32.3662H105.731C105.804 32.3662 105.878 32.44 105.878 32.5138V39.6258Z" fill="white"/>
<path d="M106.697 33.1306V32.5377C106.697 32.4639 106.798 32.3638 106.872 32.3638H113.829C113.902 32.3638 114.003 32.4639 114.003 32.5377V33.1306C114.003 33.2044 113.902 33.3045 113.829 33.3045H110.895V39.626C110.895 39.6997 110.821 39.7735 110.747 39.7735H109.955C109.881 39.7735 109.807 39.6997 109.807 39.626V33.3045H106.874C106.8 33.3045 106.7 33.207 106.7 33.1306" fill="white"/>
<path d="M28.5036 14.2343C28.5036 11.0907 27.4924 8.10784 25.5809 5.61245C24.3426 3.99716 22.7426 2.64012 20.942 1.68359L18.1486 3.54657L16.113 5.05909L15.5137 5.53867C16.1262 6.04723 16.9526 6.8641 17.9744 7.96554C19.1123 9.19348 19.9545 10.403 20.5512 11.6599C21.0898 12.8009 21.4516 14.0103 21.5994 15.1619C21.6232 15.2673 21.6443 15.3595 21.6601 15.4517L21.7156 15.7811C21.7367 15.9102 21.7552 16.0103 21.7684 16.1131C21.7789 16.1922 21.7895 16.2712 21.7974 16.3503L21.8053 16.4161C21.8212 16.54 21.8344 16.6638 21.845 16.7903C21.8529 16.8773 21.8582 16.9616 21.8634 17.0485L21.8687 17.1118C21.8766 17.2594 21.8846 17.3727 21.8898 17.4886C21.8951 17.5993 21.8951 17.7047 21.8978 17.8127C21.8978 17.9445 21.9004 18.0736 21.8978 18.2053C21.8978 18.3134 21.8925 18.424 21.8898 18.5374C21.8846 18.6665 21.8793 18.8009 21.8687 18.9326C21.8608 19.0485 21.8529 19.1619 21.8423 19.2778C21.8291 19.4096 21.8159 19.5439 21.8001 19.681C21.7869 19.7969 21.771 19.9128 21.7552 20.0288C21.7367 20.1658 21.7129 20.3055 21.6892 20.4451C21.6707 20.5611 21.6496 20.6796 21.6258 20.7982C21.5994 20.9405 21.5677 21.0828 21.536 21.2251L21.5149 21.3226C21.4964 21.4069 21.4753 21.4939 21.4542 21.5808C21.4199 21.7205 21.3803 21.8601 21.3433 21.9972L21.3169 22.092C21.2879 22.1948 21.2641 22.2844 21.2351 22.3766C21.1902 22.5189 21.1427 22.6638 21.0951 22.8061L21.0634 22.9036C21.0291 23.0064 21.0001 23.096 20.9684 23.1856C20.9156 23.3279 20.8628 23.4702 20.8073 23.6125L20.7545 23.7521C20.7202 23.8443 20.6885 23.926 20.6516 24.0103C20.5988 24.1395 20.5407 24.2738 20.48 24.4056L20.3823 24.6243C20.3453 24.7086 20.3163 24.7771 20.2819 24.8457C20.2027 25.0143 20.1156 25.1882 20.0285 25.3595L19.9493 25.5176C19.9229 25.5729 19.8938 25.6335 19.8621 25.6915C19.7143 25.9761 19.5559 26.2633 19.3869 26.5505C19.2549 26.7771 19.1176 27.0038 18.975 27.233L18.8298 27.4596C18.7691 27.5571 18.7057 27.652 18.6423 27.7495C19.577 27.4464 20.4826 27.0459 21.338 26.5558C25.7551 24.0235 28.4983 19.2989 28.4983 14.2264" fill="white"/>
<path d="M17.5052 26.6563L17.6583 26.4165C17.7903 26.2057 17.9197 25.9922 18.0438 25.7788C18.2022 25.5074 18.3474 25.2412 18.4874 24.9751L18.6431 24.6642C18.725 24.5061 18.8042 24.348 18.8781 24.1899C18.9071 24.1293 18.9335 24.0686 18.96 24.008L19.0444 23.8183C19.1104 23.6681 19.1659 23.5443 19.2161 23.4204C19.2425 23.3545 19.2662 23.2913 19.2926 23.2281L19.3613 23.0515C19.4194 22.904 19.4669 22.7854 19.5091 22.6668C19.5355 22.5957 19.5593 22.5245 19.583 22.4507L19.62 22.3401C19.6755 22.1767 19.7151 22.0528 19.752 21.929C19.7731 21.8578 19.7916 21.7893 19.8127 21.7182L19.8444 21.6022C19.8867 21.4494 19.921 21.3256 19.95 21.207C19.9685 21.1358 19.9844 21.0621 20.0002 20.9883C18.9177 22.2505 17.4022 23.1648 15.8022 23.4942C14.4557 23.7709 13.1858 23.568 12.1191 23.3308L12.0557 23.315C11.8419 23.2439 11.6676 23.1754 11.4987 23.1042L11.4643 23.0963C11.3746 23.07 11.2848 23.0436 11.1897 23.0146L11.0445 22.9646C10.8861 22.9119 10.7251 22.8592 10.5587 22.7986C10.5086 22.7801 10.4531 22.759 10.4003 22.7379L10.2789 22.6905C10.1389 22.6378 10.028 22.5957 9.91451 22.5482L9.63993 22.4323C9.50792 22.3769 9.37855 22.3216 9.24654 22.2636C9.17525 22.232 9.10396 22.1978 9.03532 22.1661L8.84786 22.0765C8.75017 22.0318 8.65512 21.9843 8.55479 21.9369L8.18252 21.7472C8.06899 21.6892 7.95546 21.6312 7.83929 21.568L7.50662 21.3862C7.37197 21.3124 7.23732 21.236 7.10002 21.1569L6.78848 20.9751C6.61686 20.8723 6.47693 20.7906 6.337 20.7037C6.21819 20.6325 6.09938 20.5561 5.97793 20.4797C5.83535 20.3875 5.69278 20.2979 5.55021 20.2057C5.42612 20.1266 5.30203 20.0423 5.17794 19.9606C5.03272 19.8631 4.88487 19.763 4.73702 19.6628C4.61029 19.5759 4.48091 19.4863 4.3489 19.3941C4.19841 19.2887 4.04792 19.1806 3.89478 19.07C3.76277 18.9751 3.63076 18.8776 3.49611 18.7801C3.34033 18.6668 3.18456 18.5456 3.02615 18.427C2.89149 18.3242 2.7542 18.2215 2.61691 18.1134C2.4585 17.9896 2.29744 17.8631 2.13639 17.7366L2.07038 17.6839C1.95157 17.5891 1.83276 17.4942 1.71131 17.3967C1.55818 17.2729 1.39976 17.1411 1.24135 17.012L0.776667 16.6273C0.631454 16.5061 0.486241 16.3796 0.341028 16.2557L0.24862 16.1767C0.24862 16.1767 0.187895 16.124 0.111328 16.0581C1.11726 23.7287 8.38846 29.4758 16.3646 28.2847L16.626 27.929C16.6788 27.8578 16.729 27.7893 16.7791 27.7208C16.8689 27.597 16.9534 27.4731 17.0379 27.3519L17.2385 27.0621C17.3309 26.925 17.4181 26.788 17.5052 26.651" fill="white"/>
<path d="M20.058 15.386C19.9313 14.3847 19.6144 13.328 19.1418 12.3241C18.6164 11.2121 17.8613 10.1317 16.8316 9.02236C16.3828 8.53488 14.9782 7.1304 14.3076 6.55859C11.963 8.34779 10.3235 10.2766 9.28584 12.4585C8.30895 14.5112 8.11622 16.5876 8.74459 18.3083C9.27264 19.7549 10.3419 20.8827 11.8416 21.5678L12.0502 21.66C12.2112 21.7259 12.3538 21.7839 12.5043 21.834C13.3756 22.0237 14.4343 22.1976 15.4877 21.9815C17.4521 21.5757 19.2422 20.0237 19.8415 18.2055L20.0527 18.2371L19.8521 18.1739C20.1187 17.3465 20.1874 16.411 20.0606 15.3913" fill="white"/>
<path d="M0.839594 14.6378C0.955765 14.7406 1.07193 14.8381 1.18811 14.9382L1.28843 15.0225C1.46005 15.1701 1.62374 15.3097 1.78216 15.4441L2.27588 15.8525C2.41581 15.9685 2.55575 16.0844 2.69304 16.1951C2.81185 16.29 2.92802 16.3822 3.04155 16.4744L3.09963 16.5218C3.25805 16.6457 3.41646 16.7722 3.57488 16.8934C3.70953 16.9962 3.8389 17.0963 3.97091 17.1964L4.0158 17.2307C4.15309 17.3361 4.29038 17.4388 4.42503 17.539C4.5544 17.6365 4.68377 17.7287 4.81051 17.8209C4.95836 17.929 5.10357 18.0317 5.24879 18.1345C5.37288 18.2215 5.49961 18.3084 5.62106 18.3954C5.76363 18.4929 5.90356 18.5877 6.0435 18.6826C6.16495 18.7643 6.28376 18.8433 6.39993 18.9197C6.5293 19.0041 6.65867 19.0857 6.7854 19.1674L7.15239 19.3967C7.28705 19.481 7.41906 19.5574 7.55107 19.6365L7.65404 19.6971C7.51147 19.423 7.38737 19.1384 7.27912 18.8433C6.50818 16.7274 6.72204 14.2267 7.87846 11.7972C9.03488 9.3677 10.8461 7.23858 13.415 5.29128L14.1543 4.65624C14.2441 4.57982 14.3338 4.5034 14.4289 4.42699C14.5134 4.35847 14.5979 4.28996 14.685 4.21882L15.6117 3.49154C15.712 3.41513 15.8124 3.33608 15.9153 3.25966L16.4275 2.88021C16.5384 2.79589 16.6308 2.73002 16.7232 2.66414L18.8486 1.19379L19.2579 0.927645C17.6605 0.321585 15.9787 0.0185547 14.2493 0.0185547C12.52 0.0185547 10.7167 0.347935 9.05864 0.996157C3.68313 3.09365 0.134652 8.14767 0 13.8921L0.45148 14.2952C0.580851 14.4112 0.710223 14.5271 0.839594 14.6378Z" fill="white"/>
</svg>