<svg width="146" height="40" viewBox="0 0 146 40" fill="none" xmlns="http://www.w3.org/2000/svg" role="none">
<path fill-rule="evenodd" clip-rule="evenodd" d="M139.652 9.20795L135.145 22.8075L129.876 9.20795H123.391L131.077 27.7559C132.312 30.8007 131.213 34.35 126.741 34.484V40H127.229C132.511 39.8904 135.926 37.2531 137.946 31.7365L146 9.20795H139.652Z" fill="white"></path>
<path fill-rule="evenodd" clip-rule="evenodd" d="M45.7881 24.9071C42.6845 24.9071 40.517 22.7206 40.517 19.5899C40.517 16.4587 42.6845 14.2716 45.7881 14.2716C48.9154 14.2716 51.0992 16.4587 51.0992 19.5899C51.0992 22.7206 48.9154 24.9071 45.7881 24.9071ZM51.0992 11.0463C49.514 9.48427 47.3593 8.66368 44.8116 8.66368C39.1727 8.66368 34.5854 13.5651 34.5854 19.5899C34.5854 25.6142 39.1727 30.5162 44.8116 30.5162C47.3593 30.5162 49.514 29.6956 51.0992 28.133V29.9542H57.0313V9.22514H51.0992V11.0463Z" fill="white"></path>
<path fill-rule="evenodd" clip-rule="evenodd" d="M78.0314 19.5897C78.0314 22.7203 75.847 24.9069 72.7198 24.9069C69.6162 24.9069 67.4486 22.7203 67.4486 19.5897C67.4486 16.4585 69.6162 14.2719 72.7198 14.2719C75.847 14.2719 78.0314 16.4585 78.0314 19.5897ZM73.6963 8.66344C71.1087 8.66344 69.0119 9.45912 67.4486 11.0316V1.20339L61.5171 1.20339V29.9539H67.4486V28.1477C69.0119 29.7197 71.1093 30.5159 73.6963 30.5159C79.4532 30.5159 83.9635 25.7164 83.9635 19.5897C83.9635 13.4629 79.4532 8.66344 73.6963 8.66344Z" fill="white"></path>
<path fill-rule="evenodd" clip-rule="evenodd" d="M98.8682 14.2711C101.995 14.2711 104.18 16.4582 104.18 19.5888C104.18 22.72 101.995 24.9066 98.8682 24.9066C95.7646 24.9066 93.5976 22.72 93.5976 19.5888C93.5976 16.4582 95.7646 14.2711 98.8682 14.2711ZM99.8447 8.66316C97.2572 8.66316 95.1604 9.45883 93.5976 11.0308V1.20255L87.6655 1.20255V29.9536H93.5976V28.1475C95.1604 29.7194 97.2572 30.5151 99.8447 30.5151C105.602 30.5151 110.112 25.7156 110.112 19.5888C110.112 13.4621 105.602 8.66316 99.8447 8.66316Z" fill="white"></path>
<path fill-rule="evenodd" clip-rule="evenodd" d="M113.815 29.9543H119.746V0L113.815 0V29.9543Z" fill="white"></path>
<path fill-rule="evenodd" clip-rule="evenodd" d="M21.9118 14.1208C24.0097 14.1208 25.2136 15.4701 25.2136 17.8234V30.1007H30.8262V17.4585C30.8262 12.2913 27.7142 8.95249 22.899 8.95249C20.3681 8.95249 18.3067 9.84949 16.9383 11.5466L16.7782 11.7443L16.6294 11.5383C15.4081 9.84672 13.523 8.95249 11.1763 8.95249C8.99417 8.95249 7.18545 9.6485 5.94613 10.9663L5.61202 11.3223V9.52004H0L0 30.1007H5.61202L5.61202 18.5532C5.61202 15.778 7.00014 14.1208 9.32547 14.1208C11.4234 14.1208 12.6268 15.4701 12.6268 17.8234V30.1007H18.2393V18.5532C18.2393 15.6949 19.5438 14.1208 21.9118 14.1208Z" fill="white"></path>
</svg>