<svg xmlns="http://www.w3.org/2000/svg" xmlns:xlink="http://www.w3.org/1999/xlink" width="170px" height="48px" viewBox="0 0 170 48" version="1.1">
    <defs>
        <polygon id="path-1" points="0 0 7.08406406 0 7.08406406 9.61662026 0 9.61662026"/>
        <polygon id="path-3" points="0 0 7.03036661 0 7.03036661 9.81578372 0 9.81578372"/>
        <polygon id="path-5" points="0 0 15.6965631 0 15.6965631 16.9354098 0 16.9354098"/>
        <polygon id="path-7" points="0 0 35.3591966 0 35.3591966 47.6189343 0 47.6189343"/>
        <polygon id="path-9" points="0 0 35.3586489 0 35.3586489 47.6187643 0 47.6187643"/>
        <polygon id="path-11" points="0 0 2.08563163 0 2.08563163 2.77061016 0 2.77061016"/>
        <polygon id="path-13" points="0 0 2.70200976 0 2.70200976 2.77044018 0 2.77044018"/>
    </defs>
    <g id="UI" stroke="none" stroke-width="1" fill="none" fill-rule="evenodd">
        <g id="Style-Guide" transform="translate(-223.000000, -5187.000000)">
            <g id="1440/Header" transform="translate(163.000000, 5164.000000)">
                <g id="Group" transform="translate(60.000000, 22.000000)">
                    <g id="logo" transform="translate(0.000000, 1.190476)">
                        <path d="M67.3290561,31.0442851 L67.3290561,14.5899273 C69.4929489,14.5899273 71.2466847,16.3299869 71.2466847,18.4763061 L71.2466847,31.0442851 L67.3290561,31.0442851 Z" id="Fill-1" fill="white"/>
                        <path d="M69.5167129,9.51225068 C68.3085204,9.51225068 67.3288276,10.483987 67.3288276,11.6823674 L67.3288276,14.4836879 C67.7943959,14.0836611 68.3753566,13.8394522 68.9894497,13.7856242 L69.2727894,13.7856242 C70.3604483,13.7856242 71.2418862,12.9113448 71.2418862,11.8325191 L71.2418862,9.51225068 L69.5167129,9.51225068 Z" id="Fill-3" fill="white"/>
                        <path d="M31.1972447,22.8002212 C31.1972447,19.3875285 29.0167857,17.6299039 26.5632694,17.6299039 C24.1440281,17.6299039 21.9292941,19.3875285 21.9292941,22.8002212 C21.9292941,26.2140472 24.1440281,28.0385318 26.5632694,28.0385318 C29.0167857,28.0385318 31.1972447,26.2474772 31.1972447,22.8002212 M35.1828519,22.8002212 C35.1828519,27.8696819 31.5371381,31.5532143 26.5632694,31.5532143 C21.6231044,31.5532143 17.9768194,27.8696819 17.9768194,22.8002212 C17.9768194,17.7647571 21.6231044,14.0812247 26.5632694,14.0812247 C31.5371381,14.0812247 35.1828519,17.7647571 35.1828519,22.8002212" id="Fill-5" fill="white"/>
                        <path d="M43.6933258,31.5190477 C39.7414223,31.5190477 37.4232921,28.613471 37.4232921,24.9633687 L37.4232921,14.5887374 L41.3769094,14.5887374 L41.3769094,24.2534062 C41.3769094,26.2813038 42.3303246,28.0043652 44.715291,28.0043652 C46.9980037,28.0043652 48.1902012,26.4835836 48.1902012,24.3208328 L48.1902012,14.5887374 L52.1426759,14.5887374 L52.1426759,28.0383618 C52.1426759,29.0435281 52.1992296,30.0475613 52.3129083,31.0459283 L48.5312371,31.0459283 C48.4404084,30.4419219 48.3947085,29.8316828 48.3952797,29.2208771 C47.5772506,30.707662 45.6350025,31.5190477 43.6933258,31.5190477" id="Fill-7" fill="white"/>
                        <path d="M64.5938568,18.4745496 C64.1654197,18.4082562 63.7329839,18.3742596 63.2988343,18.3731264 C60.2329387,18.3731264 58.8356626,20.1313176 58.8356626,23.2057441 L58.8356626,31.0459283 L54.8831879,31.0459283 L54.8831879,14.5887374 L58.7339802,14.5887374 L58.7339802,17.2246077 C59.5171632,15.4329865 61.3571576,14.3853243 63.5376166,14.3853243 C63.8917912,14.3864576 64.2459659,14.4204542 64.5938568,14.4867476 L64.5938568,18.4745496 Z" id="Fill-9" fill="white"/>
                        <path d="M77.1407219,25.6393912 C77.2766793,27.1256095 78.4008981,28.4441113 80.5133785,28.4441113 C82.1494368,28.4441113 83.0005985,27.565299 83.0005985,26.5510669 C83.0005985,25.6728212 82.3876478,24.9974219 81.0583504,24.7265823 L78.6059767,24.1860362 C75.6754672,23.544067 74.1422337,21.6515892 74.1422337,19.3874151 C74.1422337,16.5147018 76.799686,14.081678 80.2408925,14.081678 C84.8748678,14.081678 86.3743975,17.0558145 86.6463123,18.6780193 L83.3079307,19.6236916 C83.1177046,18.1187751 81.7644147,17.0308837 80.2408925,17.1572377 C78.8441877,17.1572377 77.8559262,18.03605 77.8559262,19.0491489 C77.8559262,19.9279612 78.503723,20.5699305 79.525117,20.7733435 L82.0466119,21.2793263 C85.1810575,21.9558588 86.8165446,23.84777 86.8165446,26.2813605 C86.8165446,28.7823775 84.7720429,31.5536676 80.5482247,31.5536676 C75.7434458,31.5536676 73.9040227,28.4441113 73.7000867,26.5856301 L77.1407219,25.6393912 Z" id="Fill-11" fill="white"/>
                        <path d="M93.3613492,31.0459283 L89.4094457,31.0459283 L89.4094457,7.88913933 L93.3613492,7.88913933 L93.3613492,16.1769455 C94.5375518,14.8046158 96.2838612,14.0447917 98.0981494,14.1156179 C102.18601,14.1156179 104.162533,17.0211946 104.162533,20.6373004 L104.162533,31.0459283 L100.21063,31.0459283 L100.21063,21.3138329 C100.21063,19.2859353 99.2903469,17.6631639 96.803127,17.6631639 C94.6226679,17.6631639 93.4304704,19.2859353 93.3613492,21.3812595 L93.3613492,31.0459283 Z" id="Fill-13" fill="white"/>
                        <polygon id="Fill-15" fill="white" points="7.67393621 38.0024274 9.37454573 38.0024274 5.78595687 47.4200541 4.15218353 47.4200541 0.616720874 38.0024274 2.35788911 38.0024274 5.00905766 45.3343623"/>
                        <polygon id="Fill-17" fill="white" points="15.6683433 47.4201108 15.6683433 38.002484 21.5339324 38.002484 21.5339324 39.4898356 17.275268 39.4898356 17.275268 41.9868864 21.1317728 41.9868864 21.1317728 43.4351418 17.275268 43.4351418 17.275268 45.9321926 21.5339324 45.9321926 21.5339324 47.4201108"/>
                        <polygon id="Fill-19" fill="white" points="34.7773219 47.4201108 30.0902204 40.287056 30.0902204 47.4201108 28.4832958 47.4201108 28.4832958 38.002484 30.5323675 38.002484 34.8441581 44.6839505 34.8441581 38.002484 36.4510827 38.002484 36.4510827 47.4201108"/>
                        <polygon id="Fill-21" fill="white" points="47.4720264 39.5036042 47.4720264 47.4202808 45.8651018 47.4202808 45.8651018 39.5036042 42.7854962 39.5036042 42.7854962 38.002654 50.5659133 38.002654 50.5659133 39.5036042"/>
                        <g id="Group-25" transform="translate(56.819209, 38.002427)">
                            <mask id="mask-2" fill="white">
                                <use xlink:href="#path-1"/>
                            </mask>
                            <g id="Clip-24"/>
                            <path d="M0,6.1369542 L0,0 L1.59378588,0 L1.59378588,6.04403014 C1.59378588,7.37216426 2.33012638,8.1025247 3.53489141,8.1025247 C4.75393767,8.1025247 5.47713944,7.37216426 5.47713944,6.04403014 L5.47713944,0 L7.08406406,0 L7.08406406,6.1369542 C7.08406406,8.40792756 5.53083688,9.61707355 3.53489141,9.61707355 C1.55322717,9.61707355 0,8.40792756 0,6.1369542" id="Fill-23" fill="white" mask="url(#mask-2)"/>
                        </g>
                        <path d="M74.4420825,42.2924026 C75.2441167,42.3858932 75.9713172,41.8164501 76.0655734,41.0209294 C76.1598295,40.2254088 75.5857239,39.5041142 74.7836897,39.4106235 C74.6700111,39.3975915 74.5557612,39.3975915 74.4420825,39.4106235 L72.7146243,39.4106235 L72.7146243,42.2924026 L74.4420825,42.2924026 Z M73.8931118,43.7004287 L72.7146243,43.7004287 L72.7146243,47.4202241 L71.0939897,47.4202241 L71.0939897,38.0025973 L74.736276,38.0025973 C76.2815057,37.9085401 77.6108031,39.0746237 77.7056305,40.6067374 C77.7108342,40.6911624 77.7119142,40.774454 77.7096292,40.858879 C77.7484742,42.15075 76.8441863,43.2834036 75.5668726,43.5412113 L77.7096292,47.4202241 L75.8884861,47.4202241 L73.8931118,43.7004287 Z" id="Fill-26" fill="white"/>
                        <polygon id="Fill-28" fill="white" points="84.4450598 47.4201108 84.4450598 38.002484 90.3106488 38.002484 90.3106488 39.4898356 86.0519844 39.4898356 86.0519844 41.9868864 89.907918 41.9868864 89.907918 43.4351418 86.0519844 43.4351418 86.0519844 45.9321926 90.3106488 45.9321926 90.3106488 47.4201108"/>
                        <g id="Group-32" transform="translate(96.577369, 37.803264)">
                            <mask id="mask-4" fill="white">
                                <use xlink:href="#path-3"/>
                            </mask>
                            <g id="Clip-31"/>
                            <path d="M5.47713944,2.855715 C5.32804334,1.96783694 4.52029666,1.33946632 3.61543758,1.40745954 C2.79112467,1.33153378 2.05992541,1.93270712 1.98337799,2.75032552 C1.98280674,2.7548584 1.98223549,2.75882467 1.98223549,2.76279094 C1.98509173,3.38889512 2.4655125,3.91074304 3.09331561,3.97137032 L4.45917297,4.25070911 C6.13293377,4.58274264 7.03036661,5.63153797 7.03036661,6.9602387 C7.03036661,8.42095959 5.83874032,9.8159537 3.66913502,9.8159537 C1.25846247,9.8159537 0.14738235,8.27477418 0,6.92057599 L1.49952973,6.4956184 C1.5743634,7.61014051 2.54548742,8.45438959 3.66913502,8.38129688 C4.80763512,8.38129688 5.39659327,7.81015388 5.39659327,7.07979344 C5.39659327,6.46842112 4.94187873,5.97717015 4.12442081,5.80435406 L2.78541217,5.52558188 C1.33900864,5.23321106 0.374739619,4.28980521 0.374739619,2.88234568 C0.374739619,1.30150344 1.83428189,0 3.60229884,0 C5.83874032,0 6.70875319,1.3553314 6.92297172,2.40412673 L5.47713944,2.855715 Z" id="Fill-30" fill="white" mask="url(#mask-4)"/>
                        </g>
                        <g id="Group-35" transform="translate(0.000000, 14.119868)">
                            <mask id="mask-6" fill="white">
                                <use xlink:href="#path-5"/>
                            </mask>
                            <g id="Clip-34"/>
                            <path d="M7.31633407,0 L-0.000228499768,0 L-0.000228499768,16.9354098 L3.85513384,16.9354098 L3.85627633,5.70179763 C3.84256635,5.36693105 3.72146147,5.0450965 3.51009919,4.78332262 L2.72977248,3.8246183 L7.31633407,3.82518491 C9.81383653,3.82801796 11.8377732,5.83495101 11.8400582,8.31217045 L11.8400582,16.9354098 L15.6959918,16.9354098 L15.6965631,8.31217045 C15.6914218,3.7237617 11.9428831,0.00509949107 7.31633407,0" id="Fill-33" fill="white" mask="url(#mask-6)"/>
                        </g>
                        <path d="M126.578075,36.9510823 L126.578075,22.6900722 L126.578075,22.6872391 C126.588357,16.6511415 130.950418,11.4864903 136.941111,10.4189969 C138.403509,10.2756445 139.873334,10.2206833 141.343159,10.2529801 L141.343159,20.9760766 L136.965103,26.6399113 L136.965103,14.8623534 C133.419358,15.8397559 130.962985,19.0394032 130.956702,22.6900722 L130.957273,32.375139 L130.957273,34.4126689 L126.578646,40.0770703 L126.578075,36.9510823 Z" id="Fill-36" fill="white"/>
                        <g id="Group-40" transform="translate(116.369962, 0.000000)">
                            <mask id="mask-8" fill="white">
                                <use xlink:href="#path-7"/>
                            </mask>
                            <g id="Clip-39"/>
                            <path d="M30.9805698,4.35995154 L23.7971083,4.35995154 C22.5586396,4.35995154 21.2139185,4.41774578 20.5935416,4.47100713 C11.348441,5.58212957 4.39062304,13.3594201 4.3786268,22.5968648 L4.3797693,43.042991 L4.3797693,47.6178011 L4.3786268,47.6189343 C1.96052801,47.6189343 0.00114249884,45.6743284 0.00057124942,43.2758677 L0,22.5968648 C0.0142812355,10.1223765 10.2059421,0.014051931 22.7819981,-0.000113322024 L23.7971083,0.000453288095 L23.7971083,-0.000113322024 L35.3591966,-0.000113322024 L35.3591966,7.53920092 L30.9805698,13.2036023 L30.9805698,4.35995154 Z" id="Fill-38" fill="white" mask="url(#mask-8)"/>
                        </g>
                        <g id="Group-43" transform="translate(126.577789, 0.000000)">
                            <mask id="mask-10" fill="white">
                                <use xlink:href="#path-9"/>
                            </mask>
                            <g id="Clip-42"/>
                            <path d="M35.3580541,4.34334987 L35.3580541,24.6546228 C35.4026116,30.8397389 32.9422403,36.783479 28.5293385,41.1531762 C24.2792428,45.3103947 18.5450412,47.6340628 12.576056,47.6176311 L11.5106758,47.6181977 L11.5106758,47.6187643 L0,47.6187643 L0,43.2592661 L0.00057124942,43.2592661 L0,40.076617 L4.3797693,34.4122157 L4.3797693,43.2592661 L11.5106758,43.2592661 L11.5106758,43.2671986 C12.4732311,43.266632 13.8459434,43.246234 14.7645125,43.1470773 C24.0158969,42.0461538 30.9777135,34.2626306 30.978856,25.0212195 L30.978856,-0.000283305059 C33.3969548,-0.000283305059 35.3580541,1.94488923 35.3580541,4.34334987" id="Fill-41" fill="white" mask="url(#mask-10)"/>
                        </g>
                        <path d="M151.729787,24.9294287 C151.719504,30.9751587 147.343734,36.1449094 141.342187,37.2022039 C139.887786,37.3404568 138.425959,37.3954179 136.964703,37.3659542 L136.964703,26.6400247 L141.342759,20.9761899 L141.342759,32.7565809 C144.888504,31.779745 147.344876,28.5795311 147.35116,24.9294287 L147.350589,15.2426621 L147.350589,13.2039989 L151.729216,7.53903094 L151.729216,10.6661522 L151.729787,24.9294287 Z" id="Fill-44" fill="white"/>
                        <g id="Group-48" transform="translate(164.675727, 0.000000)">
                            <mask id="mask-12" fill="white">
                                <use xlink:href="#path-11"/>
                            </mask>
                            <g id="Clip-47"/>
                            <polygon id="Fill-46" fill="white" mask="url(#mask-12)" points="0.868870368 0.311522243 0 0.311522243 0 -0.000113322024 2.08563163 -0.000113322024 2.08563163 0.317188345 1.22304501 0.317188345 1.22304501 2.77061016 0.868870368 2.77061016"/>
                        </g>
                        <g id="Group-51" transform="translate(167.297990, 0.000000)">
                            <mask id="mask-14" fill="white">
                                <use xlink:href="#path-13"/>
                            </mask>
                            <g id="Clip-50"/>
                            <polygon id="Fill-49" fill="white" mask="url(#mask-14)" points="0 -0.000283305059 0.411870832 -0.000283305059 1.35386113 1.69954705 2.29699392 -0.000283305059 2.70200976 -0.000283305059 2.70200976 2.77044018 2.38839382 2.77044018 2.38839382 0.566326814 1.38299485 2.26615717 1.34300739 2.26615717 0.348462146 0.509665802 0.348462146 2.74210967 0.0171374826 2.74210967"/>
                        </g>
                    </g>
                </g>
            </g>
        </g>
    </g>
</svg>