<svg class="text-whiteColor dark:text-primaryColor" xmlns="http://www.w3.org/2000/svg" width="144" height="36" viewBox="0 0 144 36" fill="white">
<path d="M22.6874 13.4823L27.1691 14.1684L31.1561 5.43001C31.2111 5.31509 31.1875 5.17807 31.0973 5.08802C31.0071 4.99798 30.8698 4.97447 30.7547 5.02935L22 9.00891L22.6874 13.4823Z" fill="white"/>
<path d="M35.692 17.3645L26.6824 14L24 17.648L26.6824 21.296L35.692 17.9315C35.8125 17.8892 35.8931 17.7755 35.8931 17.648C35.8931 17.5205 35.8125 17.4069 35.692 17.3645Z" fill="white"/>
<path d="M21.3096 9.19056L17.9388 0.200798C17.8964 0.0804928 17.7826 0 17.6548 0C17.527 0 17.4132 0.0804928 17.3708 0.200798L14 9.19056L17.6548 11.8683L21.3096 9.19056Z" fill="white"/>
<path d="M9.01637 14.1674L13.4981 13.4823L14.1845 9.0089L5.43081 5.02935C5.31568 4.97447 5.1784 4.99798 5.08819 5.08802C4.99797 5.17807 4.97442 5.31509 5.0294 5.43001L9.01637 14.1674Z" fill="white"/>
<path d="M27.1661 22L22.6864 22.6871L22 27.1605L30.7537 31.1401C30.8688 31.1949 31.0061 31.1714 31.0963 31.0814C31.1865 30.9913 31.2101 30.8543 31.1551 30.7394L27.1661 22Z" fill="white"/>
<path d="M13.4981 22.6861L9.01637 22L5.0294 30.7384C4.97442 30.8533 4.99797 30.9903 5.08819 31.0804C5.1784 31.1704 5.31568 31.1939 5.43081 31.1391L14.1855 27.1605L13.4981 22.6861Z" fill="white"/>
<path d="M14 26.6777L17.3708 35.6715C17.4132 35.7918 17.527 35.8723 17.6548 35.8723C17.7826 35.8723 17.8964 35.7918 17.9388 35.6715L21.3096 26.6777L17.6548 24L14 26.6777Z" fill="white"/>
<path d="M11.8891 17.648L9.2067 14L0.201151 17.3645C0.0806342 17.4069 0 17.5205 0 17.648C0 17.7755 0.0806342 17.8892 0.201151 17.9315L9.21071 21.296L11.8891 17.648Z" fill="white"/>
<path d="M50.3678 15.7832C47.4406 15.108 44.9117 14.5249 44.9117 12.3491C44.9117 10.5309 46.7692 9.26072 49.4275 9.26072C52.1611 9.26072 54.118 10.7844 54.1852 12.9672V13.1275H57.9263V12.9622C57.9263 9.49713 55.3312 6 49.5329 6C44.7883 6 41.3452 8.67068 41.3452 12.3501C41.3452 16.9873 45.5359 17.993 49.2338 18.8806C52.3538 19.6289 55.0482 20.276 55.0482 22.7874C55.0482 24.834 52.9639 26.2625 49.9795 26.2625C46.8134 26.2625 44.6016 24.4754 44.6016 21.9179V21.7526H41V21.9179C41 26.3256 44.7772 29.5242 49.9795 29.5242C55.0231 29.5242 58.684 26.6913 58.684 22.7874C58.684 17.7005 54.2635 16.6817 50.3678 15.7832Z" fill="white"/>
<path d="M72.427 7H63.2649C63.1186 7 63 7.1184 63 7.26446V29.6156C63.0006 29.7613 63.119 29.8791 63.2649 29.8791H66.4059C66.5519 29.8791 66.6703 29.7613 66.6709 29.6156V21.0276C66.6709 20.8815 66.7895 20.7631 66.9358 20.7631H72.427C76.7421 20.7631 79.9955 17.7979 79.9955 13.865C79.9955 9.95117 76.7421 7 72.427 7ZM72.427 17.4694H66.9358C66.7895 17.4694 66.6709 17.3509 66.6709 17.2049V10.5582C66.6709 10.4122 66.7895 10.2938 66.9358 10.2938H72.427C74.6689 10.2938 76.3598 11.8295 76.3598 13.865C76.3598 15.9006 74.6327 17.4694 72.427 17.4694Z" fill="white"/>
<path d="M87.5429 7.16028L78.0215 29.5115C77.9864 29.5929 77.9947 29.6866 78.0436 29.7607C78.0925 29.8347 78.1755 29.8791 78.2644 29.8791H81.5609C81.6673 29.8793 81.7635 29.8157 81.8048 29.7178L83.7686 25.0486C83.8098 24.9505 83.9059 24.8866 84.0125 24.8864H94.2484C94.355 24.8866 94.451 24.9505 94.4922 25.0486L96.4561 29.7178C96.4974 29.8157 96.5935 29.8793 96.6999 29.8791H100.099C100.188 29.8791 100.271 29.8346 100.32 29.7606C100.369 29.6867 100.377 29.5931 100.343 29.5115L90.7561 7.16028C90.7147 7.06309 90.6191 7 90.5133 7H87.7857C87.6799 7 87.5843 7.06309 87.5429 7.16028ZM92.6538 21.5926H85.6482C85.5596 21.5924 85.477 21.5481 85.428 21.4744C85.379 21.4007 85.3702 21.3075 85.4044 21.2259L88.9167 12.8773C88.9575 12.7788 89.0538 12.7146 89.1605 12.7146C89.2673 12.7146 89.3636 12.7788 89.4044 12.8773L92.8926 21.2269C92.9261 21.3076 92.9175 21.3995 92.8698 21.4726C92.822 21.5457 92.7412 21.5906 92.6538 21.5926Z" fill="white"/>
<path d="M120.474 13.7048C120.474 9.94516 117.21 7 113.048 7H104.265C104.195 7 104.127 7.02786 104.078 7.07746C104.028 7.12706 104 7.19432 104 7.26446V29.6156C104.002 29.7605 104.12 29.8771 104.265 29.8771H107.406C107.552 29.8771 107.67 29.7593 107.671 29.6136V20.7691C107.671 20.6236 107.789 20.5057 107.935 20.5057H111.375C111.462 20.5055 111.544 20.5486 111.594 20.6209L117.84 29.7639C117.89 29.836 117.972 29.8791 118.059 29.8791H121.809C121.908 29.8791 121.999 29.8244 122.044 29.7368C122.09 29.6493 122.082 29.5438 122.025 29.4634L115.703 20.5157C115.656 20.4463 115.645 20.3591 115.673 20.2803C115.701 20.2015 115.764 20.1403 115.843 20.115C118.716 19.1884 120.474 16.7821 120.474 13.7048ZM112.974 10.2988C115.193 10.2988 116.803 11.7333 116.803 13.7098C116.803 15.7413 115.197 17.2159 112.974 17.2159H107.928C107.782 17.2159 107.664 17.098 107.664 16.9524L107.634 10.5632C107.633 10.493 107.661 10.4255 107.71 10.3757C107.76 10.3258 107.827 10.2978 107.898 10.2978L112.974 10.2988Z" fill="white"/>
<path d="M132.404 17.6697L142.74 7.45179C142.816 7.3764 142.839 7.26291 142.798 7.16409C142.758 7.06528 142.661 7.00055 142.554 7H138.605C138.534 7.00026 138.467 7.02795 138.417 7.07714L129.092 16.3674C129.016 16.4426 128.903 16.4649 128.804 16.424C128.705 16.383 128.641 16.2868 128.641 16.1801V7.26446C128.641 7.19432 128.613 7.12706 128.563 7.07746C128.513 7.02786 128.446 7 128.376 7H125.265C125.119 7 125 7.1184 125 7.26446V29.6106C125.001 29.7563 125.119 29.8741 125.265 29.8741H128.376C128.522 29.8741 128.64 29.7563 128.641 29.6106V19.5871C128.64 19.4795 128.705 19.3825 128.805 19.3419C128.905 19.3014 129.019 19.3255 129.094 19.4027L139.237 29.795C139.287 29.8457 139.355 29.8741 139.427 29.8741H143.553C143.66 29.8745 143.757 29.8105 143.798 29.7119C143.839 29.6134 143.816 29.4998 143.741 29.4243L132.401 18.0434C132.299 17.9393 132.3 17.7721 132.404 17.6697Z" fill="white"/>
</svg>