<svg xmlns="http://www.w3.org/2000/svg" width="250" height="72" viewBox="0 0 250 72" fill="none">
  <path fill-rule="evenodd" clip-rule="evenodd" d="M129.031 30.807C129.031 18.2113 118.679 8.0001 105.902 8.0001H105.866V21.0423C101.984 13.0432 93.8642 7.97424 84.972 8.0001H84.9375V37.5432C84.9935 50.0932 95.3228 60.2484 108.067 60.2484H108.101V47.2018C111.982 55.2027 120.105 60.2716 128.997 60.2449H129.031V37.5527C129.089 50.1027 129.031 30.807 129.031 30.807ZM129.031 30.8521V33.2194V30.8427V30.8521Z" fill="white"/>
  <path fill-rule="evenodd" clip-rule="evenodd" d="M65.6343 39.8971V8.01172H42.4766V37.4048C42.4766 47.3738 48.9602 55.8462 57.9938 58.9496C60.4421 59.7884 63.0119 60.216 65.5998 60.2143C62.9343 60.2143 80.0878 60.2376 80.0878 60.2376V32.5324V32.5212C75.3602 32.4746 68.2059 35.204 65.6343 39.8971Z" fill="white"/>
  <path fill-rule="evenodd" clip-rule="evenodd" d="M14.456 28.3574V38.3919C14.5043 47.1134 20.1905 53.7014 26.4466 57.4074C30.8086 59.9945 37.6121 60.2445 37.6121 60.2445V8.01172C37.6121 8.01172 17.1543 8.03499 14.4888 8.03499C17.1543 8.03499 0 8.01172 0 8.01172V35.7221V35.7333C4.73621 35.7798 11.8828 33.0505 14.456 28.3574Z" fill="white"/>
  <path fill-rule="evenodd" clip-rule="evenodd" d="M139.148 8.16602V9.86084H142.431V18.1712H144.297V9.86084H147.579V8.16602H139.148Z" fill="white"/>
  <path fill-rule="evenodd" clip-rule="evenodd" d="M155.184 8.16602V12.235H150.649V8.16602H148.781V18.1712H150.649V13.8367H155.184V18.1712H157.051V8.16602H155.184Z" fill="white"/>
  <path fill-rule="evenodd" clip-rule="evenodd" d="M159.039 8.16602V18.1712H166.122V16.5721H160.906V13.7824H165.322V12.2488H160.906V9.69964H166.122V8.16602H159.039Z" fill="white"/>
  <path fill-rule="evenodd" clip-rule="evenodd" d="M140.148 24.9619V39.2576H150.269V36.9697H142.816V24.9619H140.148Z" fill="white"/>
  <path fill-rule="evenodd" clip-rule="evenodd" d="M160.937 35.9212L162.196 39.2556H165.087L159.602 24.96H156.697L151.398 39.2556H154.047L155.229 35.9212H160.937ZM158.021 28.1426L160.08 33.6322H156.055L158.021 28.1426Z" fill="white"/>
  <path fill-rule="evenodd" clip-rule="evenodd" d="M172.147 39.4474C175.423 39.4474 177.674 37.4077 178.685 34.3207L176.036 33.3474C175.597 35.5767 174.416 36.969 172.147 36.969C169.784 36.969 168.124 35.0069 168.124 32.1095C168.124 29.1741 169.784 27.2491 172.147 27.2491C174.13 27.2491 175.597 28.5983 176.036 30.8707L178.723 29.8793C177.948 26.8802 175.244 24.7836 172.147 24.7793C168.354 24.7793 165.266 27.831 165.266 31.9672C165.266 36.2655 167.991 39.4474 172.147 39.4474Z" fill="white"/>
  <path fill-rule="evenodd" clip-rule="evenodd" d="M184.343 39.2576H187.013V27.3826H191.702V24.9619H179.656V27.3826H184.343V39.2576Z" fill="white"/>
  <path fill-rule="evenodd" clip-rule="evenodd" d="M204.103 39.2556L198.613 24.96H195.723L190.422 39.2556H193.072L194.254 35.9212H199.953L201.212 39.2556H204.103ZM195.067 33.6323L197.031 28.1436L199.09 33.6323H195.067Z" fill="white"/>
  <path fill-rule="evenodd" clip-rule="evenodd" d="M202.68 27.3826H207.369V39.2576H210.037V27.3826H214.726V24.9619H202.68V27.3826Z" fill="white"/>
  <path fill-rule="evenodd" clip-rule="evenodd" d="M216.352 39.2576H219.019V24.9619H216.352V39.2576Z" fill="white"/>
  <path fill-rule="evenodd" clip-rule="evenodd" d="M235.023 31.9576C235.023 27.7636 232.088 24.7705 228.162 24.7705C224.178 24.7705 221.281 27.7636 221.281 31.9576C221.281 36.4541 224.172 39.4472 228.162 39.4472C232.088 39.4472 235.023 36.4541 235.023 31.9576ZM228.162 36.9689C225.608 36.9689 224.139 35.1974 224.139 32.1103C224.139 29.1362 225.608 27.2491 228.162 27.2491C230.668 27.2491 232.165 29.1362 232.165 32.1103C232.165 35.1974 230.677 36.9689 228.162 36.9689Z" fill="white"/>
  <path fill-rule="evenodd" clip-rule="evenodd" d="M246.883 24.9619V36.0757L241.165 24.9619H237.297V39.2567H239.964V28.3929L245.683 39.2567H249.553V24.9619H246.883Z" fill="white"/>
  <path fill-rule="evenodd" clip-rule="evenodd" d="M149.736 57.1607L144.019 46.0469H140.148V60.3426H142.816V49.4779L148.535 60.3426H152.405V46.0469H149.736V57.1607Z" fill="white"/>
  <path fill-rule="evenodd" clip-rule="evenodd" d="M155.18 60.3426H165.3V58.0546H157.847V54.071H164.156V51.8796H157.847V48.2383H165.3V46.0469H155.18V60.3426Z" fill="white"/>
  <path fill-rule="evenodd" clip-rule="evenodd" d="M166.781 48.4676H171.471V60.3426H174.14V48.4676H178.828V46.0469H166.781V48.4676Z" fill="white"/>
  <path fill-rule="evenodd" clip-rule="evenodd" d="M194.16 55.902L191.149 46.0469H188.233L185.583 55.7883L182.743 46.0469H179.922L183.981 60.3426H186.88L189.624 50.2219L192.558 60.3426H195.457L199.441 46.0469H196.772L194.16 55.902Z" fill="white"/>
  <path fill-rule="evenodd" clip-rule="evenodd" d="M206.951 45.8564C202.968 45.8564 200.07 48.8495 200.07 53.0435C200.07 57.5401 202.962 60.534 206.951 60.534C210.877 60.534 213.813 57.5401 213.813 53.0435C213.813 48.8495 210.877 45.8564 206.951 45.8564ZM206.951 58.0549C204.395 58.0549 202.929 56.2842 202.929 53.1963C202.929 50.2221 204.395 48.3351 206.951 48.3351C209.457 48.3351 210.953 50.2221 210.953 53.1963C210.953 56.2842 209.467 58.0549 206.951 58.0549Z" fill="white"/>
  <path fill-rule="evenodd" clip-rule="evenodd" d="M222.414 53.3069C224.566 53.1543 226.531 52.3164 226.531 49.5715C226.531 47.0353 224.701 46.0439 221.232 46.0439H216.086V60.3396H218.753V53.8448L219.115 53.9026C222.851 54.5112 223.31 57.8483 223.614 60.3439H227.055V59.887C225.996 59.0888 226.13 54.3207 222.414 53.3069ZM221.517 51.9926H218.753V48.24H221.326C223.061 48.24 223.728 48.8185 223.728 50.071C223.728 51.2909 223.042 51.9969 221.517 51.9969V51.9926Z" fill="white"/>
  <path fill-rule="evenodd" clip-rule="evenodd" d="M237.411 46.0508L232.081 51.8732V46.0508H229.414V60.343H232.081V55.3103L233.237 54.0904C236.236 55.0206 236.651 58.0379 236.932 60.343H240.363V59.8835C239.338 59.1016 239.417 53.3137 234.416 52.8568L240.926 46.0508H237.411Z" fill="white"/>
</svg>