<svg xmlns="http://www.w3.org/2000/svg" width="140" height="31" viewBox="0 0 140 31" fill="none">
<path d="M24.9814 8.51536C24.7316 7.82116 24.4241 7.13745 24.0429 6.47468C20.5256 0.323815 12.6707 -1.82166 6.49832 1.6834C0.520444 5.0758 -1.68774 12.5234 1.37217 18.5773C3.96154 15.0435 9.94205 8.94498 24.9814 8.51536Z" fill="url(#paint0_radial_1428_1239)"/>
<path d="M8.76623 15.211C6.36615 16.3034 4.12905 17.8621 2.23633 20.0311C5.48025 24.791 11.4897 26.7609 16.8603 25.0058C12.486 21.4929 10.241 18.386 8.76623 15.211Z" fill="url(#paint1_radial_1428_1239)"/>
<path d="M12.7996 14.011C13.5277 16.387 15.7622 20.5705 19.5634 24.0599C23.5566 21.7886 25.8646 17.7073 26.0381 13.4425C22.1107 12.9108 17.3447 12.8164 12.7996 14.011Z" fill="url(#paint2_radial_1428_1239)"/>
<path d="M68.9561 25.1134V4.9003H65.0103V25.336C65.0103 29.8575 67.5628 30.7429 71.9687 30.7429H73.4408V27.6544H72.6889C68.9561 27.6491 68.9561 26.5306 68.9561 25.1134Z" fill="white"/>
<path d="M97.6817 11.7615C95.2001 11.7615 92.7501 12.7124 91.1938 14.2606C89.6402 12.0732 87.0114 11.7615 84.3879 11.7615C82.1271 11.7615 80.1713 12.5867 79.2065 13.3175L79.0094 12.1675H75.3054V30.5913H79.2907V16.6785C80.0872 15.7957 82.0693 14.63 83.9042 14.63C87.4846 14.63 88.5177 15.9712 88.5177 20.6053V30.5939H92.5424V17.0269C93.2969 15.8821 95.3605 14.6326 97.198 14.6326C100.778 14.6326 101.812 15.9738 101.812 20.6079V30.5965H105.957V20.3879C105.962 12.7857 101.777 11.7615 97.6817 11.7615Z" fill="white"/>
<path d="M139.761 11.8761C139.169 11.808 138.533 11.8001 138.289 11.8001C136.732 11.8001 134.519 12.5467 132.768 13.6443L132.555 12.1695H128.846V30.5933H132.831V16.7276C134.529 15.6929 136.832 15.2213 138.289 15.2213C138.525 15.2213 139.135 15.2292 139.698 15.292L140 15.3261V11.8996L139.761 11.8761Z" fill="white"/>
<path d="M41.239 27.6885C37.5061 27.6885 37.5061 26.5699 37.5061 25.1501V15.185H41.9908V12.1698H37.5061V6.76556L36.2049 6.78913C35.8552 10.0768 33.3868 12.7278 30.1902 13.3827V13.684H30.1981V15.1877H33.5629V25.3728C33.5629 29.8942 36.1155 30.7797 40.5213 30.7797H42.0329V27.6911H41.239V27.6885Z" fill="white"/>
<path d="M117.785 11.7615C114.494 11.7615 112.181 12.6757 111.069 13.1132C110.824 13.2101 110.635 13.2835 110.501 13.3228L110.306 13.3804V16.4296L110.661 16.3144C110.808 16.2672 111.011 16.186 111.266 16.0865C112.417 15.628 114.565 14.7767 117.146 14.7767C119.836 14.7767 121.439 16.3615 121.439 19.0152V19.5627C120.172 19.416 118.484 19.2274 117.025 19.2274C113.077 19.2274 108.826 21.0454 108.826 25.0403C108.826 27.7595 110.067 31 115.984 31C117.312 31 118.59 30.6123 119.644 30.1172V27.3639C118.603 27.7936 117.364 28.1315 116.465 28.1315C114.128 28.1315 112.733 27.0312 112.733 25.187C112.733 23.0861 114.567 22.0199 118.187 22.0199C119.078 22.0199 120.172 22.1064 121.442 22.2793V26.3318C121.436 26.3344 121.444 26.3397 121.442 26.3423V30.5887H125.43V19.7146C125.424 14.588 122.711 11.7615 117.785 11.7615Z" fill="white"/>
<path d="M52.6603 11.766C47.1372 11.766 42.6604 16.0596 42.6604 21.3591C42.6604 26.6586 47.1372 30.9521 52.6603 30.9521C58.1834 30.9521 62.6602 26.6586 62.6602 21.3591C62.6602 16.0596 58.1834 11.766 52.6603 11.766ZM52.6603 27.5676C49.3507 27.5676 46.6667 24.7986 46.6667 21.3826C46.6667 17.9667 49.3507 15.2003 52.6603 15.2003C55.9699 15.2003 58.6539 17.9693 58.6539 21.3826C58.6513 24.7986 55.9699 27.5676 52.6603 27.5676Z" fill="white"/>
<defs>
<radialGradient id="paint0_radial_1428_1239" cx="0" cy="0" r="1" gradientUnits="userSpaceOnUse" gradientTransform="translate(1.09544 0.698708) scale(40.023 39.8833)">
<stop stop-color="white"/>
<stop offset="0.1893" stop-color="white"/>
<stop offset="0.488" stop-color="white"/>
<stop offset="0.7454" stop-color="white"/>
<stop offset="0.93" stop-color="white"/>
</radialGradient>
<radialGradient id="paint1_radial_1428_1239" cx="0" cy="0" r="1" gradientUnits="userSpaceOnUse" gradientTransform="translate(9.83118 13.9076) scale(30.7532 30.646)">
<stop stop-color="white"/>
<stop offset="0.2044" stop-color="white"/>
<stop offset="0.4374" stop-color="white"/>
<stop offset="0.68" stop-color="white"/>
<stop offset="0.9724" stop-color="white"/>
<stop offset="1" stop-color="white"/>
</radialGradient>
<radialGradient id="paint2_radial_1428_1239" cx="0" cy="0" r="1" gradientUnits="userSpaceOnUse" gradientTransform="translate(10.15 14.0131) scale(30.7532 30.646)">
<stop stop-color="white"/>
<stop offset="0.2044" stop-color="white"/>
<stop offset="0.4374" stop-color="white"/>
<stop offset="0.68" stop-color="white"/>
<stop offset="0.9724" stop-color="white"/>
<stop offset="1" stop-color="white"/>
</radialGradient>
</defs>
</svg>